<svg xmlns="http://www.w3.org/2000/svg" width="512" height="512" viewBox="0 0 512 512" version="1.1">
	<path d="M 277.500 113.599 C 275.300 113.823, 271.925 114.426, 270 114.940 C 268.075 115.453, 264.250 116.423, 261.500 117.093 C 256.216 118.382, 245.368 122.440, 237.322 126.138 C 232.479 128.364, 214.294 139.879, 211.822 142.285 C 211.095 142.993, 208.844 144.823, 206.819 146.352 C 203.469 148.882, 202.794 149.037, 199.319 148.072 C 194.284 146.674, 156.917 146.687, 151.616 148.088 C 137.906 151.714, 122.166 158, 121.167 160.250 C 120.983 160.662, 120.402 161, 119.874 161 C 119.347 161, 118.372 161.458, 117.708 162.019 C 115.327 164.026, 112.162 166.549, 108.363 169.467 C 97.880 177.518, 87.493 190.079, 82.288 201 C 71.744 223.123, 77.082 253.483, 96.540 282.058 C 99.620 286.582, 102.671 290.844, 103.320 291.531 C 103.969 292.217, 105.400 294.031, 106.500 295.563 C 111.936 303.131, 138.910 329.899, 141.179 329.977 C 141.552 329.990, 142.576 330.719, 143.455 331.598 C 145.370 333.513, 161.681 343, 163.059 343 C 163.592 343, 164.809 343.406, 165.764 343.903 C 170.285 346.253, 177.324 347.499, 186 347.484 C 193.992 347.471, 196.294 347.084, 200.500 345.045 C 206.896 341.945, 211.431 338.660, 216.733 333.289 C 219.061 330.930, 221.242 329, 221.579 329 C 221.916 329, 225.411 330.495, 229.346 332.323 C 239.643 337.105, 247.392 339.150, 264 341.469 C 270.325 342.351, 278.546 343.507, 282.269 344.037 C 285.991 344.567, 290.491 345.004, 292.269 345.009 C 296.808 345.023, 314.344 348.706, 332.500 353.460 C 358.956 360.387, 373.129 362.442, 384.510 360.999 C 399.548 359.092, 409.961 353.754, 422.550 341.500 C 434.206 330.153, 442.783 316.512, 448.015 301 C 452.660 287.227, 453.128 284.444, 453.690 267.215 C 454.159 252.822, 453.962 248.733, 452.513 242.770 C 451.556 238.831, 450.430 234.909, 450.012 234.054 C 440.955 215.545, 431.756 205.411, 404.500 183.915 C 399.550 180.011, 393.711 175.396, 391.525 173.658 C 387.323 170.320, 379.519 163.519, 377 161 C 376.175 160.175, 371.450 155.902, 366.500 151.505 C 361.550 147.107, 357.275 143.268, 357 142.973 C 355.876 141.768, 341.285 130.181, 338.500 128.282 C 333.229 124.687, 322.674 119.425, 317 117.563 C 313.975 116.571, 310.685 115.342, 309.689 114.832 C 307.740 113.836, 284.092 112.931, 277.500 113.599 M 189 190.500 C 192.223 192.342, 194.154 192.351, 196.559 190.532 C 198.335 189.188, 197.990 189.064, 192.500 189.067 C 186.799 189.071, 186.624 189.142, 189 190.500 M 197.441 192.468 C 195.093 194.244, 190.833 194.433, 189.233 192.833 C 188.343 191.943, 187.904 192.086, 187.387 193.434 C 186.464 195.838, 188.688 197.129, 193.128 196.767 C 197.336 196.423, 197.383 198.063, 193.212 199.714 C 190.548 200.768, 190.568 200.789, 194.372 200.894 C 197.696 200.985, 198.068 201.213, 197 202.500 C 196.315 203.325, 194.685 204, 193.378 204 C 191.931 204, 191 204.587, 191 205.500 C 191 208.100, 195.327 207.153, 198.947 203.760 C 200.843 201.984, 202.106 201.282, 201.753 202.200 C 201.398 203.127, 201.644 204.058, 202.306 204.290 C 203.041 204.549, 202.538 205.512, 201 206.796 L 198.500 208.883 201.218 211.637 L 203.936 214.391 203.909 204.459 C 203.888 196.797, 203.517 194.124, 202.286 192.764 C 200.349 190.623, 199.916 190.596, 197.441 192.468 M 207.667 191.667 C 206.078 193.256, 207.301 194, 211.500 194 C 213.975 194, 216 194.411, 216 194.913 C 216 195.415, 217.575 198.217, 219.500 201.140 C 222.035 204.989, 223 205.875, 223 204.354 C 223 201.116, 219.141 193.146, 217.025 192.013 C 214.898 190.875, 208.688 190.645, 207.667 191.667 M 220 192.378 C 220 193.135, 220.675 194.315, 221.500 195 C 222.325 195.685, 223 196.865, 223 197.622 C 223 198.380, 223.450 199, 224 199 C 225.305 199, 225.284 195.399, 223.965 192.934 C 222.776 190.714, 220 190.324, 220 192.378 M 198.507 193.989 C 198.157 194.555, 198.558 194.723, 199.448 194.382 C 200.302 194.054, 201 194.236, 201 194.786 C 201 195.336, 200.325 196.045, 199.500 196.362 C 198.675 196.678, 198.036 197.739, 198.079 198.719 C 198.141 200.124, 198.280 200.183, 198.737 199 C 199.055 198.175, 200.191 196.880, 201.260 196.122 C 202.813 195.021, 202.932 194.572, 201.852 193.887 C 200.075 192.762, 199.250 192.787, 198.507 193.989 M 215.273 202.293 C 215.946 206.444, 220.552 213.843, 221.219 211.844 C 221.796 210.113, 219.825 204.708, 218.250 203.700 C 217.563 203.260, 217 202.275, 217 201.509 C 217 200.744, 216.480 199.797, 215.844 199.404 C 215.014 198.891, 214.853 199.706, 215.273 202.293 M 197.182 206.953 C 195.546 209.024, 193.782 210.002, 191.182 210.276 L 187.500 210.664 191.645 210.832 C 194.616 210.952, 196.457 211.703, 198.145 213.483 C 199.440 214.848, 200.838 215.973, 201.250 215.983 C 202.590 216.014, 202.045 214.426, 199.940 212.166 C 197.914 209.991, 197.996 206, 200.067 206 C 200.580 206, 201 205.550, 201 205 C 201 203.214, 199.549 203.955, 197.182 206.953 M 213.445 207.284 C 212.677 209.283, 214.516 214.353, 216.650 216.124 C 217.762 217.047, 218.357 217.040, 219.292 216.090 C 220.237 215.132, 220.166 214.608, 218.967 213.683 C 218.124 213.032, 216.688 210.932, 215.776 209.016 C 214.420 206.168, 213.994 205.852, 213.445 207.284 M 188.750 214.392 C 185.637 216.755, 186.868 217.684, 193 217.601 C 196.300 217.556, 199 217.278, 199 216.982 C 199 216.686, 198.095 215.669, 196.989 214.722 C 194.606 212.682, 191.183 212.545, 188.750 214.392 M 212 215.559 C 212 216.416, 212.457 216.835, 213.016 216.490 C 213.575 216.144, 213.774 215.443, 213.457 214.931 C 212.600 213.544, 212 213.802, 212 215.559 M 241.813 245.683 C 242.534 245.972, 243.397 245.936, 243.729 245.604 C 244.061 245.272, 243.471 245.036, 242.417 245.079 C 241.252 245.127, 241.015 245.364, 241.813 245.683 M 236.342 247.449 C 236.674 248.314, 236.415 248.717, 235.699 248.449 C 235.040 248.201, 233.938 249.214, 233.250 250.699 C 231.742 253.956, 231.646 256, 233 256 C 233.994 256, 234.385 254.638, 234.075 252.250 C 233.985 251.563, 234.345 251, 234.873 251 C 236.583 251, 236.761 253.429, 235.268 256.383 C 234.056 258.781, 234.037 259.409, 235.156 260.117 C 236.965 261.264, 238.748 261.216, 239.500 260 C 239.840 259.450, 240.922 259, 241.904 259 C 242.886 259, 244.505 258.100, 245.500 257 C 247.268 255.046, 247.247 255, 244.584 255 C 243.084 255, 241.182 254.325, 240.357 253.500 C 239.024 252.167, 239.248 252, 242.373 252 C 244.649 252, 246.878 251.148, 248.694 249.585 C 252.152 246.609, 250.991 244.983, 247.065 247.303 C 243.516 249.399, 240.635 249.470, 239 247.500 C 237.410 245.584, 235.613 245.550, 236.342 247.449 M 341.388 248.980 C 337.292 250.635, 335 254.852, 335 260.734 C 335 265.557, 335.364 266.538, 338.106 269.099 C 340.674 271.498, 342.075 272, 346.201 272 C 351.500 272, 357 269.164, 357 266.432 C 357 265.644, 357.450 265, 358 265 C 358.550 265, 359 263.157, 359 260.904 C 359 251.938, 349.681 245.629, 341.388 248.980 M 303 249.907 L 298.500 250.500 298.455 261.250 L 298.410 272 305.051 272 C 315.223 272, 320.838 268.699, 321.684 262.223 C 322.344 257.166, 320.694 253.393, 316.775 251.004 C 313.478 248.994, 311.266 248.818, 303 249.907 M 324.448 249.885 C 324.202 250.132, 324 254.982, 324 260.665 L 324 270.996 328.250 270.615 L 332.500 270.234 332.784 260.225 L 333.068 250.217 328.982 249.827 C 326.735 249.613, 324.694 249.639, 324.448 249.885 M 255 251.927 C 255 252.986, 255.748 253.999, 256.662 254.177 C 258.064 254.450, 258.288 255.710, 258.096 262.250 C 257.884 269.488, 258.006 270, 259.935 270 C 261.810 270, 262 269.402, 262 263.500 C 262 259.833, 261.564 257, 261 257 C 260.450 257, 260 256.550, 260 256 C 260 255.450, 261.238 254.994, 262.750 254.986 C 267.461 254.963, 270 253.876, 270 251.883 C 270 250.206, 269.179 250, 262.500 250 C 255.762 250, 255 250.196, 255 251.927 M 276.968 255.750 C 276.949 259.212, 276.352 262.272, 275.468 263.441 C 273.606 265.903, 273.606 267, 275.469 267 C 276.426 267, 276.716 267.578, 276.300 268.661 C 275.799 269.966, 276.111 270.204, 277.757 269.774 C 279.132 269.414, 279.693 269.636, 279.392 270.421 C 279.074 271.249, 280.476 271.615, 283.967 271.615 C 286.735 271.615, 288.993 271.364, 288.985 271.058 C 288.914 268.481, 283.782 265.618, 282.153 267.247 C 281.282 268.118, 281 268.004, 281 266.783 C 281 265.894, 281.563 264.940, 282.250 264.662 C 283.081 264.327, 282.980 264.131, 281.950 264.079 C 281.098 264.036, 279.832 264.563, 279.137 265.250 C 278.121 266.256, 278.082 265.951, 278.937 263.685 C 280.618 259.234, 280.323 250, 278.500 250 C 277.344 250, 276.993 251.320, 276.968 255.750 M 288.154 257.378 C 288.461 263.459, 288.276 264.659, 287.099 264.208 C 285.537 263.608, 286.170 265.008, 288.909 268.207 C 290.755 270.363, 292 270.514, 292 268.583 C 292 267.804, 292.563 266.963, 293.250 266.714 C 294.250 266.352, 294.250 265.838, 293.250 264.144 C 292.563 262.980, 292 259.321, 292 256.014 C 292 250.563, 291.803 250, 289.891 250 C 287.902 250, 287.803 250.421, 288.154 257.378 M 302.042 258 L 302.052 263.500 303.868 259.500 C 305.070 256.850, 305.314 255.365, 304.591 255.100 C 303.991 254.880, 303.169 254.205, 302.765 253.600 C 302.361 252.995, 302.036 254.975, 302.042 258 M 265.336 263 C 265.336 267.125, 265.513 268.813, 265.728 266.750 C 265.944 264.688, 265.944 261.313, 265.728 259.250 C 265.513 257.188, 265.336 258.875, 265.336 263 M 344.427 256.765 C 342.324 258.205, 342.135 260.849, 343.981 262.978 C 345.595 264.839, 346.109 264.949, 347.919 263.819 C 350.219 262.382, 350.661 259.061, 348.800 257.200 C 347.438 255.838, 345.991 255.694, 344.427 256.765 M 236.459 258.067 C 235.433 259.727, 236.354 259.957, 237.789 258.399 C 238.499 257.630, 238.638 257, 238.098 257 C 237.559 257, 236.821 257.480, 236.459 258.067 M 245.794 259.522 C 244.609 260.885, 242.708 262.003, 241.570 262.006 C 239.863 262.011, 240.022 262.285, 242.477 263.565 C 245.798 265.296, 247 266.772, 246.906 269 C 246.862 270.038, 246.686 270.112, 246.334 269.239 C 245.382 266.877, 242.170 265.840, 239.750 267.115 C 237.585 268.255, 236.047 269.881, 236.015 271.064 C 235.983 272.254, 246.610 271.333, 248.750 269.961 C 251.338 268.302, 251.681 266.198, 249.500 265.362 C 248.675 265.045, 248 264.207, 248 263.500 C 248 262.793, 248.675 261.955, 249.500 261.638 C 251.448 260.891, 251.432 258.380, 249.475 257.629 C 248.565 257.280, 247.079 258.044, 245.794 259.522 M 306.667 258.667 C 306.300 259.033, 306 260.158, 306 261.167 C 306 262.504, 306.744 262.996, 308.750 262.985 C 312.403 262.964, 314.433 261.570, 313.677 259.601 C 313.065 258.006, 308.002 257.331, 306.667 258.667" stroke="none" fill="black" fill-rule="evenodd"/>
</svg>