<svg width="122" height="159" viewBox="0 0 122 159" fill="none" xmlns="http://www.w3.org/2000/svg">
<ellipse cx="8.1264" cy="90.4016" rx="7" ry="7.5" transform="rotate(-0.973424 8.1264 90.4016)" fill="#CA9797"/>
<ellipse cx="8.46619" cy="110.399" rx="7" ry="7.5" transform="rotate(-0.973424 8.46619 110.399)" fill="#CA9797"/>
<ellipse cx="8.80597" cy="130.396" rx="7" ry="7.5" transform="rotate(-0.973424 8.80597 130.396)" fill="#CA9797"/>
<ellipse cx="9.14575" cy="150.393" rx="7" ry="7.5" transform="rotate(-0.973424 9.14575 150.393)" fill="#CA9797"/>
<ellipse cx="29.1234" cy="90.0448" rx="7" ry="7.5" transform="rotate(-0.973424 29.1234 90.0448)" fill="#CA9797"/>
<ellipse cx="29.4631" cy="110.042" rx="7" ry="7.5" transform="rotate(-0.973424 29.4631 110.042)" fill="#CA9797"/>
<ellipse cx="29.8029" cy="130.039" rx="7" ry="7.5" transform="rotate(-0.973424 29.8029 130.039)" fill="#CA9797"/>
<ellipse cx="30.1427" cy="150.036" rx="7" ry="7.5" transform="rotate(-0.973424 30.1427 150.036)" fill="#CA9797"/>
<ellipse cx="50.1204" cy="89.6881" rx="7" ry="7.5" transform="rotate(-0.973424 50.1204 89.6881)" fill="#CA9797"/>
<ellipse cx="50.4601" cy="109.685" rx="7" ry="7.5" transform="rotate(-0.973424 50.4601 109.685)" fill="#CA9797"/>
<ellipse cx="50.7999" cy="129.682" rx="7" ry="7.5" transform="rotate(-0.973424 50.7999 129.682)" fill="#CA9797"/>
<ellipse cx="51.1396" cy="149.679" rx="7" ry="7.5" transform="rotate(-0.973424 51.1396 149.679)" fill="#CA9797"/>
<ellipse cx="71.1173" cy="89.3313" rx="7" ry="7.5" transform="rotate(-0.973424 71.1173 89.3313)" fill="#CA9797"/>
<ellipse cx="71.4571" cy="109.328" rx="7" ry="7.5" transform="rotate(-0.973424 71.4571 109.328)" fill="#CA9797"/>
<ellipse cx="71.7969" cy="129.326" rx="7" ry="7.5" transform="rotate(-0.973424 71.7969 129.326)" fill="#CA9797"/>
<ellipse cx="72.1367" cy="149.323" rx="7" ry="7.5" transform="rotate(-0.973424 72.1367 149.323)" fill="#CA9797"/>
<ellipse cx="92.1143" cy="88.9746" rx="7" ry="7.5" transform="rotate(-0.973424 92.1143 88.9746)" fill="#CA9797"/>
<ellipse cx="92.454" cy="108.972" rx="7" ry="7.5" transform="rotate(-0.973424 92.454 108.972)" fill="#CA9797"/>
<ellipse cx="92.7938" cy="128.969" rx="7" ry="7.5" transform="rotate(-0.973424 92.7938 128.969)" fill="#CA9797"/>
<ellipse cx="93.1336" cy="148.966" rx="7" ry="7.5" transform="rotate(-0.973424 93.1336 148.966)" fill="#CA9797"/>
<ellipse cx="113.111" cy="88.6178" rx="7" ry="7.5" transform="rotate(-0.973424 113.111 88.6178)" fill="#CA9797"/>
<ellipse cx="113.451" cy="108.615" rx="7" ry="7.5" transform="rotate(-0.973424 113.451 108.615)" fill="#CA9797"/>
<ellipse cx="113.791" cy="128.612" rx="7" ry="7.5" transform="rotate(-0.973424 113.791 128.612)" fill="#CA9797"/>
<ellipse cx="114.131" cy="148.609" rx="7" ry="7.5" transform="rotate(-0.973424 114.131 148.609)" fill="#CA9797"/>
<ellipse cx="7.1264" cy="9.4016" rx="7" ry="7.5" transform="rotate(-0.973424 7.1264 9.4016)" fill="#CA9797"/>
<ellipse cx="7.46619" cy="29.3987" rx="7" ry="7.5" transform="rotate(-0.973424 7.46619 29.3987)" fill="#CA9797"/>
<ellipse cx="7.80597" cy="49.3959" rx="7" ry="7.5" transform="rotate(-0.973424 7.80597 49.3959)" fill="#CA9797"/>
<ellipse cx="8.14575" cy="69.3929" rx="7" ry="7.5" transform="rotate(-0.973424 8.14575 69.3929)" fill="#CA9797"/>
<ellipse cx="28.1234" cy="9.04479" rx="7" ry="7.5" transform="rotate(-0.973424 28.1234 9.04479)" fill="#CA9797"/>
<ellipse cx="28.4631" cy="29.042" rx="7" ry="7.5" transform="rotate(-0.973424 28.4631 29.042)" fill="#CA9797"/>
<ellipse cx="28.8029" cy="49.0391" rx="7" ry="7.5" transform="rotate(-0.973424 28.8029 49.0391)" fill="#CA9797"/>
<ellipse cx="29.1427" cy="69.0361" rx="7" ry="7.5" transform="rotate(-0.973424 29.1427 69.0361)" fill="#CA9797"/>
<ellipse cx="49.1204" cy="8.6881" rx="7" ry="7.5" transform="rotate(-0.973424 49.1204 8.6881)" fill="#CA9797"/>
<ellipse cx="49.4601" cy="28.6852" rx="7" ry="7.5" transform="rotate(-0.973424 49.4601 28.6852)" fill="#CA9797"/>
<ellipse cx="49.7999" cy="48.6824" rx="7" ry="7.5" transform="rotate(-0.973424 49.7999 48.6824)" fill="#CA9797"/>
<ellipse cx="50.1396" cy="68.6794" rx="7" ry="7.5" transform="rotate(-0.973424 50.1396 68.6794)" fill="#CA9797"/>
<ellipse cx="70.1173" cy="8.33129" rx="7" ry="7.5" transform="rotate(-0.973424 70.1173 8.33129)" fill="#CA9797"/>
<ellipse cx="70.4571" cy="28.3285" rx="7" ry="7.5" transform="rotate(-0.973424 70.4571 28.3285)" fill="#CA9797"/>
<ellipse cx="70.7969" cy="48.3256" rx="7" ry="7.5" transform="rotate(-0.973424 70.7969 48.3256)" fill="#CA9797"/>
<ellipse cx="71.1367" cy="68.3226" rx="7" ry="7.5" transform="rotate(-0.973424 71.1367 68.3226)" fill="#CA9797"/>
<ellipse cx="91.1143" cy="7.9746" rx="7" ry="7.5" transform="rotate(-0.973424 91.1143 7.9746)" fill="#CA9797"/>
<ellipse cx="91.454" cy="27.9717" rx="7" ry="7.5" transform="rotate(-0.973424 91.454 27.9717)" fill="#CA9797"/>
<ellipse cx="91.7938" cy="47.9687" rx="7" ry="7.5" transform="rotate(-0.973424 91.7938 47.9687)" fill="#CA9797"/>
<ellipse cx="92.1336" cy="67.9659" rx="7" ry="7.5" transform="rotate(-0.973424 92.1336 67.9659)" fill="#CA9797"/>
<ellipse cx="112.111" cy="7.61779" rx="7" ry="7.5" transform="rotate(-0.973424 112.111 7.61779)" fill="#CA9797"/>
<ellipse cx="112.451" cy="27.6149" rx="7" ry="7.5" transform="rotate(-0.973424 112.451 27.6149)" fill="#CA9797"/>
<ellipse cx="112.791" cy="47.6121" rx="7" ry="7.5" transform="rotate(-0.973424 112.791 47.6121)" fill="#CA9797"/>
<ellipse cx="113.131" cy="67.6091" rx="7" ry="7.5" transform="rotate(-0.973424 113.131 67.6091)" fill="#CA9797"/>
</svg>