<svg width="653" height="450" viewBox="0 0 653 450" fill="none" xmlns="http://www.w3.org/2000/svg">
<path fill-rule="evenodd" clip-rule="evenodd" d="M404.128 28.8082C460.266 32.8965 498.056 78.1014 539.694 114.262C584.724 153.367 643.795 185.983 651.479 243.617C659.761 305.744 634.024 376.229 579.21 410.678C528.421 442.598 464.269 407.693 404.128 399.071C358.337 392.506 312.223 393.037 274.787 367.033C229.917 335.866 185.832 296.313 180.329 243.617C174.449 187.31 204.349 133.014 246.158 92.8843C288.094 52.6339 344.82 24.489 404.128 28.8082Z" fill="#568F48" fill-opacity="0.72"/>
<path fill-rule="evenodd" clip-rule="evenodd" d="M335.681 119.513C376.368 153.65 419.087 201.47 415.039 250.046C411.09 297.432 352.586 306.175 317.81 333.989C286.5 359.03 267.34 403.729 224.435 402.489C179.554 401.191 138.752 364.764 106.569 327.882C75.2615 292.004 50.2823 248.402 51.6836 204.517C53.0233 162.563 82.3272 132.813 113.546 109.39C141.839 88.1617 176.954 80.3635 214.855 82.0908C256.964 84.0098 300.679 90.146 335.681 119.513Z" fill="#488F4B" fill-opacity="0.8"/>
<path d="M238.159 185.481C234.081 185.481 230.557 185.06 227.586 184.216L227.955 182.449C230.381 183.205 233.782 183.583 238.159 183.583C240.761 183.583 242.062 182.897 242.062 181.526C242.062 180.437 240.805 179.892 238.291 179.892H232.543V177.993H238.317C239.935 177.993 241.279 178.274 242.352 178.837C243.424 179.399 243.96 180.296 243.96 181.526C243.96 182.845 243.415 183.838 242.325 184.506C241.253 185.156 239.864 185.481 238.159 185.481ZM243.644 166.761L241.824 166.365C241.982 166.102 242.062 165.662 242.062 165.047C242.062 163.5 240.761 162.727 238.159 162.727C233.782 162.727 230.381 163.104 227.955 163.86L227.586 162.094C230.557 161.25 234.081 160.828 238.159 160.828C239.864 160.828 241.253 161.18 242.325 161.883C243.415 162.586 243.96 163.641 243.96 165.047C243.96 165.803 243.854 166.374 243.644 166.761ZM227.217 160.301L226.848 158.455C230.135 157.506 233.905 157.031 238.159 157.031C240.901 157.031 243.187 157.752 245.015 159.193C246.843 160.617 247.757 162.568 247.757 165.047C247.757 166.049 247.563 167.042 247.177 168.026L245.41 167.314C245.709 166.646 245.858 165.891 245.858 165.047C245.858 163.113 245.129 161.61 243.67 160.538C242.211 159.466 240.374 158.93 238.159 158.93C234.081 158.93 230.434 159.387 227.217 160.301ZM250.446 169.819L248.891 168.87C249.4 167.657 249.655 166.383 249.655 165.047C249.655 162.041 248.557 159.642 246.359 157.849C244.162 156.038 241.429 155.133 238.159 155.133C234.134 155.133 230.24 155.643 226.479 156.662L226.083 154.764C229.722 153.744 233.747 153.234 238.159 153.234C240.62 153.234 242.861 153.709 244.883 154.658C246.904 155.607 248.521 156.996 249.734 158.824C250.947 160.635 251.554 162.709 251.554 165.047C251.554 166.752 251.185 168.343 250.446 169.819ZM253.268 172.562L251.896 171.138C252.934 169.257 253.452 167.227 253.452 165.047C253.452 162.357 252.758 159.958 251.369 157.849C249.998 155.739 248.152 154.131 245.832 153.023C243.529 151.898 240.972 151.336 238.159 151.336C233.853 151.336 229.704 151.863 225.714 152.918L225.318 151.02C229.15 149.965 233.431 149.438 238.159 149.438C240.515 149.438 242.738 149.815 244.83 150.571C246.939 151.327 248.768 152.382 250.314 153.735C251.861 155.071 253.083 156.724 253.979 158.692C254.894 160.644 255.351 162.762 255.351 165.047C255.351 167.807 254.656 170.312 253.268 172.562ZM238.159 187.38C240.374 187.38 242.211 186.87 243.67 185.851C245.129 184.813 245.858 183.372 245.858 181.526C245.858 179.821 245.138 178.494 243.696 177.545C242.272 176.578 240.55 176.095 238.528 176.095H232.543V174.196H238.555C241.104 174.196 243.274 174.864 245.067 176.2C246.86 177.519 247.757 179.294 247.757 181.526C247.757 183.935 246.843 185.833 245.015 187.222C243.187 188.593 240.901 189.278 238.159 189.278C233.905 189.278 230.135 188.804 226.848 187.854L227.217 186.009C230.434 186.923 234.081 187.38 238.159 187.38ZM238.159 191.177C241.429 191.177 244.162 190.307 246.359 188.566C248.557 186.809 249.655 184.462 249.655 181.526C249.655 178.731 248.574 176.499 246.412 174.829C244.268 173.142 241.684 172.298 238.66 172.298H232.543V170.399H238.713C241.033 170.399 243.178 170.892 245.146 171.876C247.115 172.843 248.671 174.188 249.813 175.91C250.974 177.615 251.554 179.487 251.554 181.526C251.554 183.812 250.947 185.842 249.734 187.617C248.521 189.393 246.904 190.746 244.883 191.678C242.861 192.609 240.62 193.075 238.159 193.075C233.747 193.075 229.722 192.565 226.083 191.546L226.479 189.647C230.24 190.667 234.134 191.177 238.159 191.177ZM238.159 194.974C240.972 194.974 243.529 194.429 245.832 193.339C248.152 192.231 249.998 190.649 251.369 188.593C252.758 186.519 253.452 184.163 253.452 181.526C253.452 179.593 253.03 177.8 252.187 176.147C251.343 174.478 250.227 173.098 248.838 172.008C247.467 170.9 245.902 170.039 244.145 169.424C242.387 168.809 240.576 168.501 238.713 168.501H232.543V166.603H238.818C240.98 166.603 243.055 166.963 245.041 167.684C247.045 168.404 248.803 169.397 250.314 170.663C251.844 171.929 253.065 173.511 253.979 175.409C254.894 177.29 255.351 179.329 255.351 181.526C255.351 184.515 254.577 187.187 253.03 189.542C251.483 191.897 249.4 193.708 246.781 194.974C244.18 196.239 241.306 196.872 238.159 196.872C233.431 196.872 229.15 196.345 225.318 195.29L225.714 193.392C229.704 194.446 233.853 194.974 238.159 194.974ZM288.02 151.336H289.997L279.239 195H277.262L288.02 151.336ZM273.201 158.93L272.753 160.828H258.567V158.93H273.201ZM274.098 155.133L273.649 157.031H258.567V155.133H274.098ZM274.941 151.336L274.572 153.234H258.567V151.336H274.941ZM276.286 151.336H278.237L267.479 195H265.528L276.286 151.336ZM280.188 151.336H282.166L271.408 195H269.431L280.188 151.336ZM284.117 151.336H286.068L275.311 195H273.359L284.117 151.336Z" fill="white"/>
<path d="M311.073 270.015V255.953C311.073 255.953 314.321 255.953 320.815 255.953C322.621 255.953 324.168 256.636 325.453 258.004C326.755 259.371 327.406 261.015 327.406 262.935C327.406 264.921 326.764 266.597 325.478 267.965C324.192 269.332 322.638 270.015 320.815 270.015H311.073ZM312.831 268.258H320.815C322.133 268.258 323.256 267.745 324.184 266.719C325.128 265.694 325.6 264.433 325.6 262.935C325.6 261.503 325.128 260.274 324.184 259.249C323.256 258.223 322.133 257.711 320.815 257.711H312.831V268.258ZM309.316 271.773H320.815C323.126 271.773 325.103 270.919 326.747 269.21C328.391 267.484 329.213 265.393 329.213 262.935C329.213 260.526 328.383 258.468 326.723 256.759C325.079 255.05 323.11 254.195 320.815 254.195H309.316V271.773ZM307.558 273.531V252.437H320.815C323.598 252.437 325.99 253.471 327.992 255.538C330.011 257.589 331.02 260.054 331.02 262.935C331.02 265.881 330.019 268.388 328.017 270.455C326.015 272.506 323.614 273.531 320.815 273.531H307.558ZM305.8 275.289H320.815C322.963 275.289 324.957 274.744 326.796 273.653C328.635 272.563 330.1 271.065 331.191 269.161C332.281 267.257 332.826 265.181 332.826 262.935C332.826 260.738 332.281 258.695 331.191 256.807C330.1 254.919 328.627 253.43 326.772 252.34C324.933 251.233 322.947 250.679 320.815 250.679H305.8V275.289ZM304.042 277.047V248.922H320.815C323.272 248.922 325.559 249.548 327.675 250.802C329.807 252.055 331.5 253.764 332.753 255.928C334.006 258.077 334.633 260.413 334.633 262.935C334.633 265.491 334.006 267.859 332.753 270.04C331.5 272.205 329.807 273.914 327.675 275.167C325.559 276.42 323.272 277.047 320.815 277.047H304.042ZM302.284 278.804H320.815C323.598 278.804 326.186 278.105 328.578 276.705C330.971 275.289 332.875 273.36 334.291 270.919C335.724 268.477 336.44 265.816 336.44 262.935C336.44 260.103 335.724 257.475 334.291 255.05C332.875 252.608 330.963 250.688 328.554 249.288C326.161 247.872 323.582 247.164 320.815 247.164H302.284V278.804ZM320.815 280.562H300.527V245.406H320.815C323.907 245.406 326.788 246.195 329.457 247.774C332.143 249.337 334.275 251.469 335.854 254.171C337.449 256.856 338.246 259.778 338.246 262.935C338.246 265.328 337.774 267.615 336.83 269.796C335.903 271.977 334.649 273.857 333.071 275.435C331.508 276.998 329.653 278.243 327.504 279.171C325.356 280.098 323.126 280.562 320.815 280.562ZM350.966 280.562H349.208V245.406H350.966V280.562ZM347.45 280.562H345.693V245.406H347.45V280.562ZM343.935 280.562H342.177V245.406H343.935V280.562ZM354.482 271.773H371.303V273.531H354.482V275.289H371.303V277.047H354.482V278.804H371.303V280.562H352.724V245.406H371.303V247.164H354.482V248.922H371.303V250.679H354.482V252.437H371.303V254.195H354.482V258.565H370.326V260.323H354.482V262.081H370.326V263.839H354.482V265.596H370.326V267.354H354.482V271.773ZM391.689 263.839H388.906C385.488 263.839 382.859 263.147 381.02 261.763C379.181 260.364 378.261 258.443 378.261 256.002C378.261 253.723 379.343 251.827 381.508 250.313C383.673 248.783 386.708 248.018 390.615 248.018C393.219 248.018 395.644 248.376 397.89 249.093C400.152 249.809 402.032 250.818 403.53 252.12L402.162 253.219C400.828 252.128 399.151 251.282 397.133 250.679C395.115 250.077 392.942 249.776 390.615 249.776C387.18 249.776 384.552 250.362 382.729 251.534C380.922 252.706 380.019 254.195 380.019 256.002C380.019 257.955 380.759 259.46 382.24 260.518C383.738 261.56 385.96 262.081 388.906 262.081H391.591C395.058 262.081 397.711 262.781 399.55 264.18C401.406 265.564 402.333 267.476 402.333 269.918C402.333 272.196 401.251 274.101 399.086 275.631C396.921 277.144 393.886 277.901 389.98 277.901C387.376 277.901 384.942 277.543 382.68 276.827C380.434 276.111 378.562 275.102 377.065 273.8L378.432 272.701C379.767 273.791 381.443 274.638 383.461 275.24C385.479 275.842 387.652 276.143 389.98 276.143C393.414 276.143 396.034 275.557 397.841 274.386C399.664 273.214 400.575 271.724 400.575 269.918C400.575 267.965 399.827 266.467 398.329 265.426C396.848 264.368 394.635 263.839 391.689 263.839ZM391.689 267.354H388.906C384.381 267.354 380.89 266.329 378.432 264.278C375.974 262.211 374.745 259.452 374.745 256.002C374.745 254.423 375.095 252.942 375.795 251.558C376.495 250.175 377.496 248.962 378.798 247.921C380.116 246.863 381.793 246.033 383.827 245.43C385.862 244.812 388.124 244.503 390.615 244.503C393.756 244.503 396.694 244.983 399.428 245.943C402.162 246.887 404.441 248.214 406.264 249.923L404.848 250.972C403.188 249.475 401.113 248.319 398.622 247.506C396.132 246.676 393.463 246.261 390.615 246.261C386.22 246.261 382.769 247.188 380.263 249.044C377.756 250.899 376.503 253.219 376.503 256.002C376.503 258.948 377.577 261.283 379.726 263.009C381.874 264.734 384.934 265.596 388.906 265.596H391.591C396.409 265.596 398.818 267.037 398.818 269.918C398.818 271.22 398.077 272.294 396.596 273.14C395.131 273.97 392.926 274.386 389.98 274.386C387.913 274.386 385.992 274.15 384.218 273.678C382.444 273.189 380.979 272.497 379.823 271.602L381.215 270.528C383.25 271.928 386.171 272.628 389.98 272.628C392.421 272.628 394.212 272.375 395.351 271.871C396.49 271.366 397.06 270.715 397.06 269.918C397.06 268.99 396.661 268.331 395.864 267.94C395.066 267.55 393.674 267.354 391.689 267.354ZM391.689 260.323H388.906C384.153 260.323 381.777 258.883 381.777 256.002C381.777 254.7 382.509 253.634 383.974 252.803C385.455 251.957 387.669 251.534 390.615 251.534C392.682 251.534 394.602 251.778 396.376 252.266C398.15 252.738 399.615 253.422 400.771 254.317L399.379 255.391C397.345 253.992 394.423 253.292 390.615 253.292C388.173 253.292 386.383 253.544 385.243 254.049C384.104 254.553 383.534 255.204 383.534 256.002C383.534 256.929 383.933 257.589 384.731 257.979C385.528 258.37 386.92 258.565 388.906 258.565H391.689C396.213 258.565 399.705 259.599 402.162 261.666C404.62 263.717 405.849 266.467 405.849 269.918C405.849 271.497 405.499 272.978 404.799 274.361C404.099 275.745 403.09 276.965 401.772 278.023C400.47 279.065 398.801 279.895 396.767 280.513C394.732 281.116 392.47 281.417 389.98 281.417C386.838 281.417 383.901 280.945 381.166 280.001C378.432 279.04 376.153 277.706 374.33 275.997L375.746 274.947C377.406 276.444 379.482 277.608 381.972 278.438C384.462 279.252 387.131 279.659 389.98 279.659C394.374 279.659 397.825 278.731 400.331 276.876C402.838 275.02 404.091 272.701 404.091 269.918C404.091 266.972 403.017 264.636 400.868 262.911C398.72 261.186 395.66 260.323 391.689 260.323ZM420.253 245.406H422.011V280.562H420.253V245.406ZM416.738 245.406H418.495V280.562H416.738V245.406ZM413.222 245.406H414.98V280.562H413.222V245.406ZM409.706 245.406H411.464V280.562H409.706V245.406ZM451.332 262.74H453.09V280.562C450.486 281.734 447.792 282.32 445.009 282.32C442.389 282.32 439.882 281.807 437.49 280.782C435.113 279.757 433.062 278.381 431.337 276.656C429.612 274.931 428.237 272.88 427.211 270.504C426.186 268.111 425.673 265.605 425.673 262.984C425.673 260.364 426.186 257.865 427.211 255.489C428.237 253.096 429.612 251.038 431.337 249.312C433.062 247.587 435.113 246.212 437.49 245.186C439.882 244.161 442.389 243.648 445.009 243.648C448.004 243.648 450.82 244.299 453.456 245.601C456.093 246.887 458.315 248.661 460.121 250.924L458.705 251.973C457.061 249.939 455.043 248.336 452.651 247.164C450.274 245.992 447.727 245.406 445.009 245.406C442.633 245.406 440.354 245.87 438.173 246.798C436.008 247.725 434.137 248.979 432.558 250.557C430.995 252.12 429.75 253.992 428.823 256.173C427.895 258.337 427.431 260.608 427.431 262.984C427.431 265.36 427.895 267.639 428.823 269.82C429.75 271.985 430.995 273.857 432.558 275.435C434.137 276.998 436.008 278.243 438.173 279.171C440.354 280.098 442.633 280.562 445.009 280.562C447.206 280.562 449.314 280.172 451.332 279.39V277.584C449.298 278.398 447.19 278.804 445.009 278.804C442.861 278.804 440.81 278.389 438.857 277.559C436.904 276.713 435.219 275.59 433.803 274.19C432.403 272.774 431.28 271.09 430.434 269.136C429.604 267.183 429.189 265.133 429.189 262.984C429.189 260.836 429.604 258.785 430.434 256.832C431.28 254.879 432.403 253.202 433.803 251.803C435.219 250.386 436.904 249.263 438.857 248.433C440.81 247.587 442.861 247.164 445.009 247.164C447.467 247.164 449.77 247.693 451.918 248.751C454.083 249.809 455.906 251.265 457.387 253.121L456.02 254.219C454.701 252.576 453.082 251.282 451.161 250.338C449.241 249.394 447.19 248.922 445.009 248.922C443.105 248.922 441.282 249.296 439.54 250.045C437.815 250.777 436.318 251.778 435.048 253.048C433.795 254.301 432.794 255.798 432.045 257.54C431.313 259.265 430.947 261.08 430.947 262.984C430.947 264.888 431.313 266.711 432.045 268.453C432.794 270.178 433.795 271.676 435.048 272.945C436.318 274.198 437.815 275.199 439.54 275.948C441.282 276.68 443.105 277.047 445.009 277.047C447.255 277.047 449.363 276.591 451.332 275.679V273.873C449.363 274.817 447.255 275.289 445.009 275.289C442.779 275.289 440.72 274.744 438.832 273.653C436.944 272.546 435.447 271.049 434.34 269.161C433.25 267.273 432.704 265.214 432.704 262.984C432.704 260.754 433.25 258.695 434.34 256.807C435.447 254.919 436.944 253.43 438.832 252.34C440.72 251.233 442.779 250.679 445.009 250.679C446.913 250.679 448.704 251.094 450.38 251.925C452.073 252.738 453.489 253.87 454.628 255.318L453.237 256.392C452.26 255.155 451.047 254.187 449.599 253.487C448.167 252.787 446.637 252.437 445.009 252.437C442.096 252.437 439.605 253.471 437.538 255.538C435.488 257.605 434.462 260.087 434.462 262.984C434.462 265.881 435.488 268.363 437.538 270.43C439.605 272.497 442.096 273.531 445.009 273.531C447.288 273.531 449.395 272.978 451.332 271.871V270.089C449.428 271.212 447.32 271.773 445.009 271.773C442.584 271.773 440.509 270.919 438.783 269.21C437.074 267.484 436.22 265.409 436.22 262.984C436.22 260.559 437.074 258.492 438.783 256.783C440.509 255.058 442.584 254.195 445.009 254.195C446.376 254.195 447.662 254.496 448.866 255.098C450.071 255.684 451.08 256.49 451.894 257.515L450.478 258.59C449.062 256.832 447.239 255.953 445.009 255.953C443.072 255.953 441.412 256.645 440.029 258.028C438.661 259.395 437.978 261.047 437.978 262.984C437.978 264.921 438.661 266.581 440.029 267.965C441.412 269.332 443.072 270.015 445.009 270.015C447.499 270.015 449.607 269.324 451.332 267.94V262.74ZM461.879 262.74H463.637V280.562H461.879V262.74ZM458.364 262.74H460.121V280.562H458.364V262.74ZM454.848 262.74H456.606V280.562H454.848V262.74ZM495.693 266.378L493.935 263.179V245.406H495.693V266.378ZM499.208 272.457L497.45 269.478V245.406H499.208V272.457ZM474.99 259.591L476.747 262.789V280.562H474.99V259.591ZM471.474 253.267L473.232 256.49V280.562H471.474V253.267ZM472.084 245.406H474.135L494.496 280.562H492.446L472.084 245.406ZM476.235 245.406H478.31L498.647 280.562H496.547L476.235 245.406ZM480.361 245.406H482.411L500.966 277.511V245.406H502.724V280.562H500.649L480.361 245.406ZM469.716 248.433V280.562H467.958V245.406H470.058L490.346 280.562H488.32L469.716 248.433Z" fill="white"/>
<path d="M224.534 130.244H483.205C485.967 130.244 488.205 132.483 488.205 135.244V235.113" stroke="white"/>
<path d="M224.534 217.136V272.061C224.534 274.822 226.773 277.061 229.534 277.061H288.954" stroke="white"/>
</svg>
