<svg width="143" height="93" viewBox="0 0 143 93" fill="none" xmlns="http://www.w3.org/2000/svg">
<path fill-rule="evenodd" clip-rule="evenodd" d="M83.5487 5.95574C95.1546 6.80096 102.967 16.1465 111.575 23.6222C120.885 31.7068 133.097 38.4498 134.685 50.3649C136.398 63.209 131.077 77.7808 119.745 84.9028C109.245 91.5018 95.9821 84.2858 83.5487 82.5032C74.0819 81.1459 64.5484 81.2556 56.8089 75.8796C47.5327 69.4362 38.4185 61.2591 37.2808 50.3649C36.0652 38.7241 42.2467 27.4991 50.8903 19.2027C59.5599 10.8814 71.2874 5.06279 83.5487 5.95574Z" fill="#568F48" fill-opacity="0.72"/>
<path fill-rule="evenodd" clip-rule="evenodd" d="M69.3981 24.708C77.8096 31.7653 86.6412 41.6515 85.8044 51.6941C84.988 61.4905 72.893 63.298 65.7033 69.0483C59.2304 74.2252 55.2693 83.4662 46.3993 83.2098C37.1206 82.9416 28.6853 75.4106 22.0318 67.7858C15.5594 60.3684 10.3952 51.3541 10.6849 42.2815C10.9619 33.6079 17.0201 27.4575 23.4742 22.6151C29.3236 18.2264 36.583 16.6142 44.4187 16.9713C53.1243 17.368 62.1618 18.6366 69.3981 24.708Z" fill="#488F4B" fill-opacity="0.8"/>
<path d="M29.7685 51.1221C28.1071 51.1221 26.6712 50.9502 25.4609 50.6064L25.6113 49.8867C26.5996 50.1947 27.9853 50.3486 29.7685 50.3486C30.8284 50.3486 31.3584 50.0693 31.3584 49.5107C31.3584 49.0667 30.8463 48.8447 29.8222 48.8447H27.4804V48.0713H29.833C30.4918 48.0713 31.0397 48.1859 31.4765 48.415C31.9134 48.6442 32.1318 49.0094 32.1318 49.5107C32.1318 50.0479 31.9098 50.4525 31.4658 50.7246C31.0289 50.9896 30.4632 51.1221 29.7685 51.1221ZM32.0029 43.4951L31.2617 43.334C31.3261 43.2266 31.3584 43.0475 31.3584 42.7969C31.3584 42.1667 30.8284 41.8516 29.7685 41.8516C27.9853 41.8516 26.5996 42.0055 25.6113 42.3135L25.4609 41.5938C26.6712 41.25 28.1071 41.0781 29.7685 41.0781C30.4632 41.0781 31.0289 41.2214 31.4658 41.5078C31.9098 41.7943 32.1318 42.224 32.1318 42.7969C32.1318 43.1048 32.0888 43.3376 32.0029 43.4951ZM25.3105 40.8633L25.1601 40.1113C26.4993 39.7246 28.0355 39.5312 29.7685 39.5312C30.8857 39.5312 31.8167 39.8249 32.5615 40.4121C33.3063 40.9922 33.6787 41.7871 33.6787 42.7969C33.6787 43.2051 33.5999 43.6097 33.4424 44.0107L32.7226 43.7207C32.8444 43.4486 32.9052 43.1406 32.9052 42.7969C32.9052 42.0091 32.608 41.3968 32.0136 40.96C31.4192 40.5231 30.6709 40.3047 29.7685 40.3047C28.1071 40.3047 26.6211 40.4909 25.3105 40.8633ZM34.7744 44.7412L34.1406 44.3545C34.3483 43.8604 34.4521 43.3411 34.4521 42.7969C34.4521 41.5723 34.0045 40.5947 33.1093 39.8643C32.2142 39.1266 31.1006 38.7578 29.7685 38.7578C28.1286 38.7578 26.5423 38.9655 25.0097 39.3809L24.8486 38.6074C26.331 38.1921 27.971 37.9844 29.7685 37.9844C30.7711 37.9844 31.6842 38.1777 32.5078 38.5645C33.3313 38.9512 33.9902 39.5169 34.4843 40.2617C34.9785 40.9993 35.2256 41.8444 35.2256 42.7969C35.2256 43.4915 35.0752 44.1396 34.7744 44.7412ZM35.9238 45.8584L35.3652 45.2783C35.7877 44.512 35.999 43.6849 35.999 42.7969C35.999 41.7012 35.7161 40.7236 35.1504 39.8643C34.5918 39.0049 33.8398 38.3496 32.8945 37.8984C31.9563 37.4401 30.9144 37.2109 29.7685 37.2109C28.014 37.2109 26.3239 37.4258 24.6982 37.8555L24.5371 37.082C26.0983 36.6523 27.8421 36.4375 29.7685 36.4375C30.7282 36.4375 31.6341 36.5915 32.4863 36.8994C33.3457 37.2074 34.0905 37.637 34.7207 38.1885C35.3509 38.7327 35.8486 39.4059 36.2138 40.208C36.5862 41.0029 36.7724 41.8659 36.7724 42.7969C36.7724 43.9212 36.4896 44.9417 35.9238 45.8584ZM29.7685 51.8955C30.6709 51.8955 31.4192 51.6878 32.0136 51.2725C32.608 50.8499 32.9052 50.2627 32.9052 49.5107C32.9052 48.8161 32.6116 48.2754 32.0244 47.8887C31.4443 47.4948 30.7425 47.2979 29.9189 47.2979H27.4804V46.5244H29.9297C30.9681 46.5244 31.8525 46.7965 32.583 47.3408C33.3134 47.8779 33.6787 48.6012 33.6787 49.5107C33.6787 50.4919 33.3063 51.2653 32.5615 51.8311C31.8167 52.3896 30.8857 52.6689 29.7685 52.6689C28.0355 52.6689 26.4993 52.4756 25.1601 52.0889L25.3105 51.3369C26.6211 51.7093 28.1071 51.8955 29.7685 51.8955ZM29.7685 53.4424C31.1006 53.4424 32.2142 53.0879 33.1093 52.3789C34.0045 51.6628 34.4521 50.7067 34.4521 49.5107C34.4521 48.3721 34.0117 47.4626 33.1308 46.7822C32.2571 46.0947 31.2044 45.751 29.9726 45.751H27.4804V44.9775H29.9941C30.9394 44.9775 31.8131 45.1781 32.6152 45.5791C33.4173 45.973 34.0511 46.5208 34.5166 47.2227C34.9892 47.9173 35.2256 48.68 35.2256 49.5107C35.2256 50.4417 34.9785 51.2689 34.4843 51.9922C33.9902 52.7155 33.3313 53.2669 32.5078 53.6465C31.6842 54.026 30.7711 54.2158 29.7685 54.2158C27.971 54.2158 26.331 54.0081 24.8486 53.5928L25.0097 52.8193C26.5423 53.2347 28.1286 53.4424 29.7685 53.4424ZM29.7685 54.9893C30.9144 54.9893 31.9563 54.7673 32.8945 54.3232C33.8398 53.8721 34.5918 53.2275 35.1504 52.3896C35.7161 51.5446 35.999 50.585 35.999 49.5107C35.999 48.723 35.8271 47.9925 35.4834 47.3193C35.1396 46.639 34.6849 46.0768 34.1191 45.6328C33.5605 45.1816 32.9231 44.8307 32.207 44.5801C31.4909 44.3294 30.7532 44.2041 29.9941 44.2041H27.4804V43.4307H30.0371C30.9179 43.4307 31.763 43.5775 32.5722 43.8711C33.3886 44.1647 34.1048 44.5693 34.7207 45.085C35.3437 45.6006 35.8414 46.2451 36.2138 47.0186C36.5862 47.7848 36.7724 48.6156 36.7724 49.5107C36.7724 50.7282 36.4573 51.8167 35.8271 52.7764C35.1969 53.736 34.3483 54.4736 33.2812 54.9893C32.2213 55.5049 31.0504 55.7627 29.7685 55.7627C27.8421 55.7627 26.0983 55.5479 24.5371 55.1182L24.6982 54.3447C26.3239 54.7744 28.014 54.9893 29.7685 54.9893ZM50.082 37.2109H50.8877L46.5049 55H45.6992L50.082 37.2109ZM44.0449 40.3047L43.8623 41.0781H38.083V40.3047H44.0449ZM44.4101 38.7578L44.2275 39.5312H38.083V38.7578H44.4101ZM44.7539 37.2109L44.6035 37.9844H38.083V37.2109H44.7539ZM45.3017 37.2109H46.0966L41.7138 55H40.9189L45.3017 37.2109ZM46.8916 37.2109H47.6972L43.3144 55H42.5088L46.8916 37.2109ZM48.4922 37.2109H49.2871L44.9043 55H44.1093L48.4922 37.2109Z" fill="white"/>
<path d="M60.9531 47.125H60.0078C59.6067 47.125 59.3177 47.0234 59.1406 46.8203C58.9635 46.612 58.875 46.3385 58.875 46C58.875 45.25 59.4349 44.875 60.5547 44.875C61.6067 44.875 62.3984 45.0312 62.9297 45.3438L62.4765 45.6875C62.1119 45.5208 61.4713 45.4375 60.5547 45.4375C60.1067 45.4375 59.8047 45.487 59.6484 45.5859C59.4974 45.6849 59.4218 45.8229 59.4218 46C59.4218 46.1771 59.4635 46.3151 59.5468 46.4141C59.6302 46.513 59.7838 46.5625 60.0078 46.5625H60.9765C61.6797 46.5625 62.3125 46.6823 62.875 46.9219C63.4427 47.1615 63.9088 47.4896 64.2734 47.9062C64.638 48.3177 64.9166 48.7943 65.1093 49.3359C65.3021 49.8724 65.3984 50.4479 65.3984 51.0625C65.3984 51.5625 65.3281 52.0365 65.1875 52.4844C65.0468 52.9323 64.8333 53.3438 64.5468 53.7188C64.2656 54.0938 63.9244 54.4193 63.5234 54.6953C63.1276 54.9661 62.6536 55.1771 62.1015 55.3281C61.5547 55.4844 60.9609 55.5625 60.3203 55.5625C59.3151 55.5625 58.3724 55.4089 57.4922 55.1016C56.6172 54.7995 55.888 54.375 55.3047 53.8281L55.7578 53.4922C56.289 53.9714 56.9531 54.3438 57.75 54.6094C58.5521 54.8698 59.4088 55 60.3203 55C61.0338 55 61.6771 54.8984 62.25 54.6953C62.8281 54.487 63.3021 54.2031 63.6718 53.8438C64.0468 53.4844 64.3333 53.0677 64.5312 52.5938C64.7343 52.1198 64.8359 51.6094 64.8359 51.0625C64.8359 50.3385 64.6901 49.6849 64.3984 49.1016C64.1067 48.513 63.6614 48.0365 63.0625 47.6719C62.4687 47.3073 61.7656 47.125 60.9531 47.125ZM60.0078 47.6875H60.8984C61.9557 47.6875 62.7812 48.0104 63.375 48.6562C63.9739 49.3021 64.2734 50.1042 64.2734 51.0625C64.2734 52.0365 63.9271 52.8438 63.2343 53.4844C62.5416 54.1198 61.5703 54.4375 60.3203 54.4375C59.4869 54.4375 58.7083 54.3229 57.9843 54.0938C57.2604 53.8646 56.6588 53.5417 56.1797 53.125L56.6172 52.7734C57.0442 53.1224 57.5807 53.3932 58.2265 53.5859C58.8776 53.7786 59.5755 53.875 60.3203 53.875C61.4192 53.875 62.2578 53.612 62.8359 53.0859C63.4192 52.5599 63.7109 51.8854 63.7109 51.0625C63.7109 50.25 63.4661 49.5781 62.9765 49.0469C62.4922 48.5156 61.7968 48.25 60.8906 48.25H60.0078C59.2474 48.25 58.6771 48.0417 58.2968 47.625C57.9166 47.2083 57.7265 46.6667 57.7265 46C57.7265 45.3333 57.9609 44.7917 58.4297 44.375C58.9036 43.9583 59.6119 43.75 60.5547 43.75C61.2161 43.75 61.8307 43.8281 62.3984 43.9844C62.9661 44.1354 63.4349 44.3542 63.8047 44.6406L63.3593 44.9844C62.7083 44.5365 61.7734 44.3125 60.5547 44.3125C59.7682 44.3125 59.1927 44.4688 58.8281 44.7812C58.4687 45.0885 58.289 45.4948 58.289 46C58.289 46.5104 58.4218 46.9193 58.6875 47.2266C58.9583 47.5339 59.3984 47.6875 60.0078 47.6875ZM60.0078 48.8125H60.8672C61.6276 48.8125 62.1979 49.0234 62.5781 49.4453C62.9583 49.8672 63.1484 50.4062 63.1484 51.0625C63.1484 51.7292 62.9114 52.2708 62.4375 52.6875C61.9687 53.1042 61.263 53.3125 60.3203 53.3125C59.6588 53.3125 59.0416 53.237 58.4687 53.0859C57.901 52.9297 57.4323 52.7083 57.0625 52.4219L57.5078 52.0781C58.1588 52.526 59.0963 52.75 60.3203 52.75C61.1067 52.75 61.6797 52.5964 62.039 52.2891C62.4036 51.9766 62.5859 51.5677 62.5859 51.0625C62.5859 50.5573 62.4505 50.151 62.1797 49.8438C61.9088 49.5312 61.4687 49.375 60.8593 49.375H60.0078C58.9401 49.375 58.1041 49.0573 57.5 48.4219C56.901 47.7812 56.6015 46.974 56.6015 46C56.6015 45.026 56.9479 44.2214 57.6406 43.5859C58.3333 42.9453 59.3047 42.625 60.5547 42.625C61.388 42.625 62.164 42.7396 62.8828 42.9688C63.6067 43.1979 64.2083 43.5208 64.6875 43.9375L64.25 44.2891C63.8229 43.9401 63.2864 43.6693 62.6406 43.4766C61.9948 43.2839 61.2994 43.1875 60.5547 43.1875C59.4557 43.1875 58.6146 43.4505 58.0312 43.9766C57.4531 44.5026 57.164 45.1771 57.164 46C57.164 46.8177 57.4088 47.4922 57.8984 48.0234C58.388 48.5495 59.0911 48.8125 60.0078 48.8125ZM60.0078 49.9375H60.8672C61.2682 49.9375 61.5573 50.0417 61.7343 50.25C61.9114 50.4583 62 50.7292 62 51.0625C62 51.8125 61.4401 52.1875 60.3203 52.1875C59.263 52.1875 58.4687 52.0312 57.9375 51.7188L58.3906 51.375C58.7552 51.5417 59.3984 51.625 60.3203 51.625C60.7682 51.625 61.0677 51.5755 61.2187 51.4766C61.375 51.3776 61.4531 51.2396 61.4531 51.0625C61.4531 50.8906 61.4088 50.7552 61.3203 50.6562C61.2369 50.5521 61.0807 50.5 60.8515 50.5H60.0078C59.289 50.5 58.638 50.3828 58.0547 50.1484C57.4765 49.9141 57 49.5911 56.625 49.1797C56.2552 48.7682 55.9713 48.2917 55.7734 47.75C55.5755 47.2083 55.4765 46.625 55.4765 46C55.4765 45.5 55.5468 45.026 55.6875 44.5781C55.8281 44.1302 56.039 43.7188 56.3203 43.3438C56.6067 42.9688 56.9479 42.6458 57.3437 42.375C57.7448 42.099 58.2187 41.8854 58.7656 41.7344C59.3177 41.5781 59.914 41.5 60.5547 41.5C61.5599 41.5 62.5 41.6536 63.375 41.9609C64.25 42.263 64.9791 42.6875 65.5625 43.2344L65.1093 43.5703C64.5781 43.0911 63.914 42.7214 63.1172 42.4609C62.3203 42.1953 61.4661 42.0625 60.5547 42.0625C59.8411 42.0625 59.1953 42.1667 58.6172 42.375C58.0442 42.5781 57.5703 42.8594 57.1953 43.2188C56.8255 43.5781 56.539 43.9948 56.3359 44.4688C56.138 44.9427 56.039 45.4531 56.039 46C56.039 46.7344 56.1875 47.3958 56.4843 47.9844C56.7812 48.5729 57.2343 49.0469 57.8437 49.4062C58.4531 49.7604 59.1744 49.9375 60.0078 49.9375ZM68.6406 46.8672H69.2031V55H68.6406V46.8672ZM66.3906 44.3125V43.75H74.8281V44.3125H66.3906ZM66.3906 45.4375V44.875H74.8281V45.4375H66.3906ZM66.3906 46.5625V46H74.8281V46.5625H66.3906ZM72.0156 46.8672H72.5781V55H72.0156V46.8672ZM70.8906 46.8672H71.4531V55H70.8906V46.8672ZM69.7656 46.8672H70.3281V55H69.7656V46.8672ZM83.4531 50.0156V43.75H84.0156V50.0156C84.0156 50.6094 83.7864 51.1198 83.3281 51.5469C82.875 51.974 82.3281 52.1875 81.6875 52.1875C81.0468 52.1875 80.4974 51.974 80.039 51.5469C79.5859 51.1198 79.3593 50.6094 79.3593 50.0156V43.75H79.9218V50.0156C79.9218 50.4583 80.0937 50.8385 80.4375 51.1562C80.7864 51.4688 81.2031 51.625 81.6875 51.625C82.1718 51.625 82.5859 51.4688 82.9297 51.1562C83.2786 50.8385 83.4531 50.4583 83.4531 50.0156ZM84.5781 50.0156V43.75H85.1406V50.0156C85.1406 50.9271 84.8021 51.7057 84.125 52.3516C83.4479 52.9922 82.6354 53.3125 81.6875 53.3125C80.7396 53.3125 79.9271 52.9922 79.25 52.3516C78.5729 51.7057 78.2343 50.9271 78.2343 50.0156V43.75H78.7968V50.0156C78.7968 50.7708 79.0781 51.4167 79.6406 51.9531C80.2083 52.4844 80.8906 52.75 81.6875 52.75C82.4791 52.75 83.1588 52.4844 83.7265 51.9531C84.2942 51.4167 84.5781 50.7708 84.5781 50.0156ZM85.7031 50.0156V43.75H86.2656V50.0156C86.2656 50.8125 86.0599 51.5521 85.6484 52.2344C85.2369 52.9115 84.6797 53.4479 83.9765 53.8438C83.2734 54.2396 82.5104 54.4375 81.6875 54.4375C80.8646 54.4375 80.1015 54.2396 79.3984 53.8438C78.6953 53.4479 78.138 52.9115 77.7265 52.2344C77.3151 51.5521 77.1093 50.8125 77.1093 50.0156V43.75H77.6718V50.0156C77.6718 50.7083 77.8515 51.3516 78.2109 51.9453C78.5703 52.5391 79.0573 53.0104 79.6718 53.3594C80.2916 53.7031 80.9635 53.875 81.6875 53.875C82.4114 53.875 83.0807 53.7031 83.6953 53.3594C84.3151 53.0104 84.8047 52.5391 85.164 51.9453C85.5234 51.3516 85.7031 50.7083 85.7031 50.0156ZM86.8281 50.0156V43.75H87.3906V50.0156C87.3906 50.7656 87.2396 51.4844 86.9375 52.1719C86.6354 52.8542 86.2291 53.4427 85.7187 53.9375C85.2083 54.4323 84.6015 54.8255 83.8984 55.1172C83.1953 55.4141 82.4583 55.5625 81.6875 55.5625C80.9166 55.5625 80.1797 55.4141 79.4765 55.1172C78.7734 54.8255 78.1666 54.4323 77.6562 53.9375C77.1458 53.4427 76.7396 52.8542 76.4375 52.1719C76.1354 51.4844 75.9843 50.7656 75.9843 50.0156V43.75H76.5468V50.0156C76.5468 50.9115 76.776 51.7422 77.2343 52.5078C77.6979 53.2734 78.3229 53.8802 79.1093 54.3281C79.901 54.776 80.7604 55 81.6875 55C82.6146 55 83.4713 54.776 84.2578 54.3281C85.0494 53.8802 85.6744 53.2734 86.1328 52.5078C86.5963 51.7422 86.8281 50.9115 86.8281 50.0156ZM92.1797 51.625V47.125C92.1797 47.125 93.2187 47.125 95.2968 47.125C95.875 47.125 96.3698 47.3438 96.7812 47.7812C97.1979 48.2188 97.4062 48.7448 97.4062 49.3594C97.4062 49.9948 97.2005 50.5312 96.789 50.9688C96.3776 51.4062 95.8802 51.625 95.2968 51.625H92.1797ZM92.7422 51.0625H95.2968C95.7187 51.0625 96.0781 50.8984 96.375 50.5703C96.6771 50.2422 96.8281 49.8385 96.8281 49.3594C96.8281 48.901 96.6771 48.5078 96.375 48.1797C96.0781 47.8516 95.7187 47.6875 95.2968 47.6875H92.7422V51.0625ZM91.6172 52.1875H95.2968C96.0364 52.1875 96.6692 51.9141 97.1953 51.3672C97.7213 50.8151 97.9843 50.1458 97.9843 49.3594C97.9843 48.5885 97.7187 47.9297 97.1875 47.3828C96.6614 46.8359 96.0312 46.5625 95.2968 46.5625H91.6172V52.1875ZM91.0547 52.75V46H95.2968C96.1875 46 96.9531 46.3307 97.5937 46.9922C98.2396 47.6484 98.5625 48.4375 98.5625 49.3594C98.5625 50.3021 98.2422 51.1042 97.6015 51.7656C96.9609 52.4219 96.1927 52.75 95.2968 52.75H91.0547ZM90.4922 53.3125H95.2968C95.9843 53.3125 96.6224 53.138 97.2109 52.7891C97.7994 52.4401 98.2682 51.9609 98.6172 51.3516C98.9661 50.7422 99.1406 50.0781 99.1406 49.3594C99.1406 48.6562 98.9661 48.0026 98.6172 47.3984C98.2682 46.7943 97.7968 46.3177 97.2031 45.9688C96.6146 45.6146 95.9791 45.4375 95.2968 45.4375H90.4922V53.3125ZM89.9297 53.875V44.875H95.2968C96.0833 44.875 96.8151 45.0755 97.4922 45.4766C98.1744 45.8776 98.7161 46.4245 99.1172 47.1172C99.5182 47.8047 99.7187 48.5521 99.7187 49.3594C99.7187 50.1771 99.5182 50.9349 99.1172 51.6328C98.7161 52.3255 98.1744 52.8724 97.4922 53.2734C96.8151 53.6745 96.0833 53.875 95.2968 53.875H89.9297ZM89.3672 54.4375H95.2968C96.1875 54.4375 97.0156 54.2135 97.7812 53.7656C98.5468 53.3125 99.1562 52.6953 99.6093 51.9141C100.068 51.1328 100.297 50.2812 100.297 49.3594C100.297 48.4531 100.068 47.612 99.6093 46.8359C99.1562 46.0547 98.5442 45.4401 97.7734 44.9922C97.0078 44.5391 96.1823 44.3125 95.2968 44.3125H89.3672V54.4375ZM95.2968 55H88.8047V43.75H95.2968C96.2864 43.75 97.2083 44.0026 98.0625 44.5078C98.9218 45.0078 99.6041 45.6901 100.109 46.5547C100.62 47.4141 100.875 48.349 100.875 49.3594C100.875 50.125 100.724 50.8568 100.422 51.5547C100.125 52.2526 99.7239 52.8542 99.2187 53.3594C98.7187 53.8594 98.125 54.2578 97.4375 54.5547C96.75 54.8516 96.0364 55 95.2968 55ZM105.508 43.75H106.07V55H105.508V43.75ZM104.383 43.75H104.945V55H104.383V43.75ZM103.258 43.75H103.82V55H103.258V43.75ZM102.133 43.75H102.695V55H102.133V43.75ZM111.836 47.7891C111.398 48.2266 111.18 48.7552 111.18 49.375C111.18 49.9948 111.398 50.526 111.836 50.9688C112.279 51.4062 112.81 51.625 113.43 51.625C114.049 51.625 114.578 51.4062 115.016 50.9688C115.458 50.526 115.68 49.9948 115.68 49.375C115.68 48.7552 115.458 48.2266 115.016 47.7891C114.578 47.3464 114.049 47.125 113.43 47.125C112.81 47.125 112.279 47.3464 111.836 47.7891ZM111.437 51.3672C110.891 50.8151 110.617 50.151 110.617 49.375C110.617 48.599 110.891 47.9375 111.437 47.3906C111.99 46.8385 112.654 46.5625 113.43 46.5625C114.206 46.5625 114.867 46.8385 115.414 47.3906C115.966 47.9375 116.242 48.599 116.242 49.375C116.242 50.151 115.966 50.8151 115.414 51.3672C114.867 51.9141 114.206 52.1875 113.43 52.1875C112.654 52.1875 111.99 51.9141 111.437 51.3672ZM111.039 46.9922C110.383 47.6536 110.055 48.4479 110.055 49.375C110.055 50.3021 110.383 51.0964 111.039 51.7578C111.7 52.4193 112.497 52.75 113.43 52.75C114.362 52.75 115.156 52.4193 115.812 51.7578C116.474 51.0964 116.805 50.3021 116.805 49.375C116.805 48.4479 116.474 47.6536 115.812 46.9922C115.156 46.3307 114.362 46 113.43 46C112.497 46 111.7 46.3307 111.039 46.9922ZM110.016 51.3516C109.667 50.7474 109.492 50.0885 109.492 49.375C109.492 48.6615 109.667 48.0026 110.016 47.3984C110.37 46.7943 110.849 46.3177 111.453 45.9688C112.057 45.6146 112.716 45.4375 113.43 45.4375C114.143 45.4375 114.802 45.6146 115.406 45.9688C116.01 46.3177 116.487 46.7943 116.836 47.3984C117.19 48.0026 117.367 48.6615 117.367 49.375C117.367 50.0885 117.19 50.7474 116.836 51.3516C116.487 51.9557 116.01 52.4349 115.406 52.7891C114.802 53.138 114.143 53.3125 113.43 53.3125C112.716 53.3125 112.057 53.138 111.453 52.7891C110.849 52.4349 110.37 51.9557 110.016 51.3516ZM109.281 47.6328C109.047 48.1849 108.93 48.7656 108.93 49.375C108.93 49.9844 109.047 50.5677 109.281 51.125C109.521 51.6771 109.841 52.1562 110.242 52.5625C110.648 52.9635 111.128 53.2839 111.68 53.5234C112.237 53.7578 112.82 53.875 113.43 53.875C114.039 53.875 114.62 53.7578 115.172 53.5234C115.729 53.2839 116.208 52.9635 116.609 52.5625C117.016 52.1562 117.336 51.6771 117.57 51.125C117.81 50.5677 117.93 49.9844 117.93 49.375C117.93 48.7656 117.81 48.1849 117.57 47.6328C117.336 47.0755 117.016 46.5964 116.609 46.1953C116.208 45.7891 115.729 45.4688 115.172 45.2344C114.62 44.9948 114.039 44.875 113.43 44.875C112.82 44.875 112.237 44.9948 111.68 45.2344C111.128 45.4688 110.648 45.7891 110.242 46.1953C109.841 46.5964 109.521 47.0755 109.281 47.6328ZM108.766 51.3438C108.5 50.7188 108.367 50.0625 108.367 49.375C108.367 48.6875 108.5 48.0312 108.766 47.4062C109.036 46.7812 109.396 46.2448 109.844 45.7969C110.297 45.3438 110.836 44.9844 111.461 44.7188C112.086 44.4479 112.742 44.3125 113.43 44.3125C114.117 44.3125 114.773 44.4479 115.398 44.7188C116.023 44.9844 116.56 45.3438 117.008 45.7969C117.461 46.2448 117.82 46.7812 118.086 47.4062C118.357 48.0312 118.492 48.6875 118.492 49.375C118.492 50.0625 118.357 50.7188 118.086 51.3438C117.82 51.9688 117.461 52.5078 117.008 52.9609C116.56 53.4089 116.023 53.7682 115.398 54.0391C114.773 54.3047 114.117 54.4375 113.43 54.4375C112.742 54.4375 112.086 54.3047 111.461 54.0391C110.836 53.7682 110.297 53.4089 109.844 52.9609C109.396 52.5078 109.036 51.9688 108.766 51.3438ZM108.25 47.1953C107.953 47.888 107.805 48.6146 107.805 49.375C107.805 50.1354 107.953 50.8646 108.25 51.5625C108.547 52.2552 108.945 52.8542 109.445 53.3594C109.95 53.8594 110.549 54.2578 111.242 54.5547C111.94 54.8516 112.669 55 113.43 55C114.19 55 114.917 54.8516 115.609 54.5547C116.307 54.2578 116.906 53.8594 117.406 53.3594C117.911 52.8542 118.312 52.2552 118.609 51.5625C118.906 50.8646 119.055 50.1354 119.055 49.375C119.055 48.6146 118.906 47.888 118.609 47.1953C118.312 46.4974 117.911 45.8984 117.406 45.3984C116.906 44.8932 116.307 44.4922 115.609 44.1953C114.917 43.8984 114.19 43.75 113.43 43.75C112.669 43.75 111.94 43.8984 111.242 44.1953C110.549 44.4922 109.95 44.8932 109.445 45.3984C108.945 45.8984 108.547 46.4974 108.25 47.1953ZM107.734 51.7812C107.406 51.0156 107.242 50.2135 107.242 49.375C107.242 48.5365 107.406 47.737 107.734 46.9766C108.062 46.2109 108.503 45.5521 109.055 45C109.607 44.4479 110.263 44.0078 111.023 43.6797C111.789 43.3516 112.591 43.1875 113.43 43.1875C114.268 43.1875 115.068 43.3516 115.828 43.6797C116.594 44.0078 117.253 44.4479 117.805 45C118.357 45.5521 118.797 46.2109 119.125 46.9766C119.453 47.737 119.617 48.5365 119.617 49.375C119.617 50.2135 119.453 51.0156 119.125 51.7812C118.797 52.5417 118.357 53.1979 117.805 53.75C117.253 54.3021 116.594 54.7422 115.828 55.0703C115.068 55.3984 114.268 55.5625 113.43 55.5625C112.591 55.5625 111.789 55.3984 111.023 55.0703C110.263 54.7422 109.607 54.3021 109.055 53.75C108.503 53.1979 108.062 52.5417 107.734 51.7812Z" fill="white"/>
</svg>
