<svg width="653" height="450" viewBox="0 0 653 450" fill="none" xmlns="http://www.w3.org/2000/svg">
<path fill-rule="evenodd" clip-rule="evenodd" d="M404.128 28.8081C460.266 32.8965 498.056 78.1014 539.694 114.261C584.724 153.367 643.795 185.983 651.479 243.617C659.761 305.744 634.024 376.229 579.21 410.678C528.421 442.598 464.269 407.693 404.128 399.071C358.337 392.506 312.223 393.036 274.787 367.033C229.917 335.866 185.832 296.313 180.329 243.617C174.449 187.31 204.349 133.014 246.158 92.8843C288.093 52.6339 344.82 24.4889 404.128 28.8081Z" fill="#568F48" fill-opacity="0.72"/>
<path fill-rule="evenodd" clip-rule="evenodd" d="M335.681 119.513C376.368 153.65 419.087 201.47 415.039 250.046C411.091 297.432 352.586 306.175 317.81 333.989C286.5 359.03 267.34 403.729 224.435 402.489C179.554 401.191 138.752 364.764 106.569 327.882C75.2615 292.004 50.2822 248.402 51.6836 204.517C53.0233 162.563 82.3272 132.813 113.546 109.39C141.839 88.1617 176.954 80.3635 214.855 82.0908C256.964 84.0098 300.679 90.146 335.681 119.513Z" fill="#488F4B" fill-opacity="0.8"/>
<path d="M238.159 185.481C234.081 185.481 230.557 185.06 227.586 184.216L227.955 182.449C230.381 183.205 233.782 183.583 238.159 183.583C240.761 183.583 242.062 182.897 242.062 181.526C242.062 180.437 240.805 179.892 238.291 179.892H232.543V177.993H238.317C239.935 177.993 241.279 178.274 242.352 178.837C243.424 179.399 243.96 180.296 243.96 181.526C243.96 182.845 243.415 183.838 242.325 184.506C241.253 185.156 239.864 185.481 238.159 185.481ZM243.644 166.761L241.824 166.365C241.982 166.102 242.062 165.662 242.062 165.047C242.062 163.5 240.761 162.727 238.159 162.727C233.782 162.727 230.381 163.104 227.955 163.86L227.586 162.094C230.557 161.25 234.081 160.828 238.159 160.828C239.864 160.828 241.253 161.18 242.325 161.883C243.415 162.586 243.96 163.641 243.96 165.047C243.96 165.803 243.854 166.374 243.644 166.761ZM227.217 160.301L226.848 158.455C230.135 157.506 233.905 157.031 238.159 157.031C240.901 157.031 243.187 157.752 245.015 159.193C246.843 160.617 247.757 162.568 247.757 165.047C247.757 166.049 247.563 167.042 247.177 168.026L245.41 167.314C245.709 166.646 245.858 165.891 245.858 165.047C245.858 163.113 245.129 161.61 243.67 160.538C242.211 159.466 240.374 158.93 238.159 158.93C234.081 158.93 230.434 159.387 227.217 160.301ZM250.446 169.819L248.891 168.87C249.4 167.657 249.655 166.383 249.655 165.047C249.655 162.041 248.557 159.642 246.359 157.849C244.162 156.038 241.429 155.133 238.159 155.133C234.134 155.133 230.24 155.643 226.479 156.662L226.083 154.764C229.722 153.744 233.747 153.234 238.159 153.234C240.62 153.234 242.861 153.709 244.883 154.658C246.904 155.607 248.521 156.996 249.734 158.824C250.947 160.635 251.554 162.709 251.554 165.047C251.554 166.752 251.185 168.343 250.446 169.819ZM253.268 172.562L251.896 171.138C252.934 169.257 253.452 167.227 253.452 165.047C253.452 162.357 252.758 159.958 251.369 157.849C249.998 155.739 248.152 154.131 245.832 153.023C243.529 151.898 240.972 151.336 238.159 151.336C233.853 151.336 229.704 151.863 225.714 152.918L225.318 151.02C229.15 149.965 233.431 149.438 238.159 149.438C240.515 149.438 242.738 149.815 244.83 150.571C246.939 151.327 248.768 152.382 250.314 153.735C251.861 155.071 253.083 156.724 253.979 158.692C254.894 160.644 255.351 162.762 255.351 165.047C255.351 167.807 254.656 170.312 253.268 172.562ZM238.159 187.38C240.374 187.38 242.211 186.87 243.67 185.851C245.129 184.813 245.858 183.372 245.858 181.526C245.858 179.821 245.138 178.494 243.696 177.545C242.272 176.578 240.55 176.095 238.528 176.095H232.543V174.196H238.555C241.104 174.196 243.274 174.864 245.067 176.2C246.86 177.519 247.757 179.294 247.757 181.526C247.757 183.935 246.843 185.833 245.015 187.222C243.187 188.593 240.901 189.278 238.159 189.278C233.905 189.278 230.135 188.804 226.848 187.854L227.217 186.009C230.434 186.923 234.081 187.38 238.159 187.38ZM238.159 191.177C241.429 191.177 244.162 190.307 246.359 188.566C248.557 186.809 249.655 184.462 249.655 181.526C249.655 178.731 248.574 176.499 246.412 174.829C244.268 173.142 241.684 172.298 238.66 172.298H232.543V170.399H238.713C241.033 170.399 243.178 170.892 245.146 171.876C247.115 172.843 248.671 174.188 249.813 175.91C250.974 177.615 251.554 179.487 251.554 181.526C251.554 183.812 250.947 185.842 249.734 187.617C248.521 189.393 246.904 190.746 244.883 191.678C242.861 192.609 240.62 193.075 238.159 193.075C233.747 193.075 229.722 192.565 226.083 191.546L226.479 189.647C230.24 190.667 234.134 191.177 238.159 191.177ZM238.159 194.974C240.972 194.974 243.529 194.429 245.832 193.339C248.152 192.231 249.998 190.649 251.369 188.593C252.758 186.519 253.452 184.163 253.452 181.526C253.452 179.593 253.03 177.8 252.187 176.147C251.343 174.478 250.227 173.098 248.838 172.008C247.467 170.9 245.902 170.039 244.145 169.424C242.387 168.809 240.576 168.501 238.713 168.501H232.543V166.603H238.818C240.98 166.603 243.055 166.963 245.041 167.684C247.045 168.404 248.803 169.397 250.314 170.663C251.844 171.929 253.065 173.511 253.979 175.409C254.894 177.29 255.351 179.329 255.351 181.526C255.351 184.515 254.577 187.187 253.03 189.542C251.483 191.897 249.4 193.708 246.781 194.974C244.18 196.239 241.306 196.872 238.159 196.872C233.431 196.872 229.15 196.345 225.318 195.29L225.714 193.392C229.704 194.446 233.853 194.974 238.159 194.974ZM288.02 151.336H289.997L279.239 195H277.262L288.02 151.336ZM273.201 158.93L272.753 160.828H258.567V158.93H273.201ZM274.098 155.133L273.649 157.031H258.567V155.133H274.098ZM274.941 151.336L274.572 153.234H258.567V151.336H274.941ZM276.286 151.336H278.237L267.479 195H265.528L276.286 151.336ZM280.188 151.336H282.166L271.408 195H269.431L280.188 151.336ZM284.117 151.336H286.068L275.311 195H273.359L284.117 151.336Z" fill="white"/>
<path d="M316.86 255.953H313.906C312.652 255.953 311.749 255.635 311.196 255.001C310.642 254.35 310.365 253.495 310.365 252.437C310.365 250.094 312.115 248.922 315.615 248.922C318.902 248.922 321.376 249.41 323.036 250.386L321.62 251.461C320.481 250.94 318.479 250.679 315.615 250.679C314.215 250.679 313.271 250.834 312.782 251.143C312.31 251.453 312.074 251.884 312.074 252.437C312.074 252.991 312.205 253.422 312.465 253.731C312.726 254.04 313.206 254.195 313.906 254.195H316.933C319.13 254.195 321.108 254.569 322.865 255.318C324.64 256.067 326.096 257.092 327.236 258.394C328.375 259.68 329.246 261.169 329.848 262.862C330.45 264.538 330.751 266.337 330.751 268.258C330.751 269.82 330.531 271.301 330.092 272.701C329.653 274.101 328.985 275.386 328.09 276.558C327.211 277.73 326.145 278.747 324.892 279.61C323.655 280.456 322.174 281.116 320.448 281.588C318.74 282.076 316.884 282.32 314.882 282.32C311.741 282.32 308.795 281.84 306.044 280.88C303.31 279.936 301.031 278.609 299.208 276.9L300.624 275.85C302.284 277.348 304.36 278.511 306.85 279.342C309.356 280.155 312.034 280.562 314.882 280.562C317.112 280.562 319.122 280.245 320.912 279.61C322.719 278.959 324.2 278.072 325.356 276.949C326.528 275.826 327.423 274.524 328.041 273.043C328.676 271.562 328.993 269.967 328.993 268.258C328.993 265.995 328.538 263.953 327.626 262.13C326.715 260.29 325.323 258.801 323.451 257.662C321.596 256.523 319.399 255.953 316.86 255.953ZM313.906 257.711H316.689C319.993 257.711 322.573 258.72 324.428 260.738C326.3 262.756 327.236 265.263 327.236 268.258C327.236 271.301 326.153 273.824 323.989 275.826C321.824 277.812 318.788 278.804 314.882 278.804C312.278 278.804 309.845 278.446 307.582 277.73C305.32 277.014 303.44 276.005 301.943 274.703L303.31 273.604C304.644 274.695 306.321 275.541 308.339 276.143C310.374 276.746 312.555 277.047 314.882 277.047C318.316 277.047 320.937 276.225 322.743 274.581C324.566 272.937 325.478 270.829 325.478 268.258C325.478 265.719 324.713 263.619 323.183 261.959C321.669 260.299 319.496 259.469 316.664 259.469H313.906C311.529 259.469 309.747 258.817 308.559 257.515C307.371 256.213 306.777 254.521 306.777 252.437C306.777 250.354 307.509 248.661 308.974 247.359C310.455 246.057 312.669 245.406 315.615 245.406C317.682 245.406 319.602 245.65 321.376 246.138C323.15 246.61 324.615 247.294 325.771 248.189L324.379 249.263C322.345 247.864 319.423 247.164 315.615 247.164C313.157 247.164 311.358 247.652 310.219 248.629C309.096 249.589 308.534 250.858 308.534 252.437C308.534 254.032 308.949 255.31 309.78 256.27C310.626 257.231 312.001 257.711 313.906 257.711ZM313.906 261.226H316.591C318.967 261.226 320.75 261.885 321.938 263.204C323.126 264.522 323.72 266.207 323.72 268.258C323.72 270.341 322.979 272.034 321.498 273.336C320.033 274.638 317.828 275.289 314.882 275.289C312.815 275.289 310.886 275.053 309.096 274.581C307.322 274.093 305.857 273.401 304.701 272.506L306.093 271.431C308.128 272.831 311.057 273.531 314.882 273.531C317.34 273.531 319.13 273.051 320.253 272.091C321.392 271.114 321.962 269.836 321.962 268.258C321.962 266.679 321.539 265.409 320.693 264.449C319.846 263.472 318.471 262.984 316.567 262.984H313.906C310.569 262.984 307.957 261.991 306.069 260.006C304.197 258.004 303.261 255.481 303.261 252.437C303.261 249.394 304.343 246.879 306.508 244.893C308.673 242.891 311.708 241.89 315.615 241.89C318.219 241.89 320.644 242.248 322.89 242.965C325.152 243.681 327.032 244.69 328.53 245.992L327.162 247.091C325.828 246 324.151 245.154 322.133 244.552C320.115 243.949 317.942 243.648 315.615 243.648C312.18 243.648 309.552 244.47 307.729 246.114C305.922 247.758 305.019 249.866 305.019 252.437C305.019 254.993 305.784 257.1 307.314 258.76C308.844 260.404 311.041 261.226 313.906 261.226ZM313.906 264.742H316.591C317.844 264.742 318.748 265.067 319.301 265.719C319.854 266.37 320.131 267.216 320.131 268.258C320.131 270.601 318.381 271.773 314.882 271.773C311.578 271.773 309.096 271.285 307.436 270.308L308.852 269.234C309.991 269.755 312.001 270.015 314.882 270.015C316.282 270.015 317.218 269.861 317.69 269.552C318.178 269.242 318.422 268.811 318.422 268.258C318.422 267.72 318.284 267.297 318.007 266.988C317.747 266.663 317.258 266.5 316.542 266.5H313.906C311.659 266.5 309.625 266.134 307.802 265.401C305.995 264.669 304.506 263.66 303.334 262.374C302.179 261.088 301.292 259.599 300.673 257.906C300.055 256.213 299.745 254.39 299.745 252.437C299.745 250.875 299.965 249.394 300.405 247.994C300.844 246.594 301.503 245.308 302.382 244.136C303.277 242.965 304.343 241.955 305.58 241.109C306.834 240.247 308.315 239.579 310.024 239.107C311.749 238.619 313.613 238.375 315.615 238.375C318.756 238.375 321.694 238.855 324.428 239.815C327.162 240.759 329.441 242.086 331.264 243.795L329.848 244.844C328.188 243.347 326.113 242.191 323.622 241.378C321.132 240.548 318.463 240.133 315.615 240.133C313.385 240.133 311.366 240.458 309.56 241.109C307.769 241.744 306.288 242.623 305.116 243.746C303.961 244.869 303.066 246.171 302.431 247.652C301.812 249.133 301.503 250.728 301.503 252.437C301.503 254.732 301.967 256.799 302.895 258.638C303.823 260.478 305.239 261.959 307.143 263.082C309.047 264.189 311.301 264.742 313.906 264.742ZM340.883 255.147H342.641V280.562H340.883V255.147ZM333.852 247.164V245.406H360.219V247.164H333.852ZM333.852 250.679V248.922H360.219V250.679H333.852ZM333.852 254.195V252.437H360.219V254.195H333.852ZM351.43 255.147H353.188V280.562H351.43V255.147ZM347.914 255.147H349.672V280.562H347.914V255.147ZM344.399 255.147H346.156V280.562H344.399V255.147ZM387.172 264.986V245.406H388.93V264.986C388.93 266.842 388.214 268.437 386.781 269.771C385.365 271.106 383.656 271.773 381.655 271.773C379.653 271.773 377.935 271.106 376.503 269.771C375.087 268.437 374.379 266.842 374.379 264.986V245.406H376.137V264.986C376.137 266.37 376.674 267.558 377.748 268.551C378.839 269.527 380.141 270.015 381.655 270.015C383.168 270.015 384.462 269.527 385.536 268.551C386.627 267.558 387.172 266.37 387.172 264.986ZM390.688 264.986V245.406H392.446V264.986C392.446 267.834 391.388 270.268 389.272 272.286C387.156 274.288 384.617 275.289 381.655 275.289C378.692 275.289 376.153 274.288 374.037 272.286C371.921 270.268 370.864 267.834 370.864 264.986V245.406H372.621V264.986C372.621 267.346 373.5 269.364 375.258 271.041C377.032 272.701 379.164 273.531 381.655 273.531C384.128 273.531 386.253 272.701 388.027 271.041C389.801 269.364 390.688 267.346 390.688 264.986ZM394.203 264.986V245.406H395.961V264.986C395.961 267.476 395.318 269.788 394.032 271.92C392.747 274.036 391.005 275.712 388.808 276.949C386.611 278.186 384.226 278.804 381.655 278.804C379.083 278.804 376.698 278.186 374.501 276.949C372.304 275.712 370.562 274.036 369.277 271.92C367.991 269.788 367.348 267.476 367.348 264.986V245.406H369.106V264.986C369.106 267.151 369.667 269.161 370.79 271.016C371.913 272.872 373.435 274.345 375.356 275.435C377.293 276.51 379.392 277.047 381.655 277.047C383.917 277.047 386.008 276.51 387.929 275.435C389.866 274.345 391.396 272.872 392.519 271.016C393.642 269.161 394.203 267.151 394.203 264.986ZM397.719 264.986V245.406H399.477V264.986C399.477 267.33 399.005 269.576 398.061 271.724C397.117 273.857 395.847 275.696 394.252 277.242C392.657 278.788 390.761 280.017 388.564 280.928C386.366 281.856 384.063 282.32 381.655 282.32C379.246 282.32 376.943 281.856 374.745 280.928C372.548 280.017 370.652 278.788 369.057 277.242C367.462 275.696 366.192 273.857 365.248 271.724C364.304 269.576 363.832 267.33 363.832 264.986V245.406H365.59V264.986C365.59 267.786 366.306 270.382 367.739 272.774C369.187 275.167 371.14 277.063 373.598 278.463C376.072 279.862 378.757 280.562 381.655 280.562C384.552 280.562 387.229 279.862 389.687 278.463C392.161 277.063 394.114 275.167 395.546 272.774C396.995 270.382 397.719 267.786 397.719 264.986ZM414.443 270.015V255.953C414.443 255.953 417.69 255.953 424.184 255.953C425.99 255.953 427.537 256.636 428.823 258.004C430.125 259.371 430.776 261.015 430.776 262.935C430.776 264.921 430.133 266.597 428.847 267.965C427.561 269.332 426.007 270.015 424.184 270.015H414.443ZM416.2 268.258H424.184C425.502 268.258 426.625 267.745 427.553 266.719C428.497 265.694 428.969 264.433 428.969 262.935C428.969 261.503 428.497 260.274 427.553 259.249C426.625 258.223 425.502 257.711 424.184 257.711H416.2V268.258ZM412.685 271.773H424.184C426.495 271.773 428.473 270.919 430.116 269.21C431.76 267.484 432.582 265.393 432.582 262.935C432.582 260.526 431.752 258.468 430.092 256.759C428.448 255.05 426.479 254.195 424.184 254.195H412.685V271.773ZM410.927 273.531V252.437H424.184C426.967 252.437 429.36 253.471 431.362 255.538C433.38 257.589 434.389 260.054 434.389 262.935C434.389 265.881 433.388 268.388 431.386 270.455C429.384 272.506 426.983 273.531 424.184 273.531H410.927ZM409.169 275.289H424.184C426.332 275.289 428.326 274.744 430.165 273.653C432.004 272.563 433.469 271.065 434.56 269.161C435.65 267.257 436.196 265.181 436.196 262.935C436.196 260.738 435.65 258.695 434.56 256.807C433.469 254.919 431.996 253.43 430.141 252.34C428.302 251.233 426.316 250.679 424.184 250.679H409.169V275.289ZM407.411 277.047V248.922H424.184C426.642 248.922 428.928 249.548 431.044 250.802C433.176 252.055 434.869 253.764 436.122 255.928C437.376 258.077 438.002 260.413 438.002 262.935C438.002 265.491 437.376 267.859 436.122 270.04C434.869 272.205 433.176 273.913 431.044 275.167C428.928 276.42 426.642 277.047 424.184 277.047H407.411ZM405.654 278.804H424.184C426.967 278.804 429.555 278.105 431.948 276.705C434.34 275.289 436.244 273.36 437.66 270.919C439.093 268.477 439.809 265.816 439.809 262.935C439.809 260.103 439.093 257.475 437.66 255.05C436.244 252.608 434.332 250.688 431.923 249.288C429.531 247.872 426.951 247.164 424.184 247.164H405.654V278.804ZM424.184 280.562H403.896V245.406H424.184C427.276 245.406 430.157 246.195 432.826 247.774C435.512 249.337 437.644 251.469 439.223 254.171C440.818 256.856 441.615 259.778 441.615 262.935C441.615 265.328 441.143 267.615 440.199 269.796C439.272 271.977 438.018 273.857 436.44 275.435C434.877 276.998 433.022 278.243 430.873 279.171C428.725 280.098 426.495 280.562 424.184 280.562ZM456.093 245.406H457.851V280.562H456.093V245.406ZM452.577 245.406H454.335V280.562H452.577V245.406ZM449.062 245.406H450.82V280.562H449.062V245.406ZM445.546 245.406H447.304V280.562H445.546V245.406ZM475.868 258.028C474.501 259.395 473.818 261.047 473.818 262.984C473.818 264.921 474.501 266.581 475.868 267.965C477.252 269.332 478.912 270.015 480.849 270.015C482.786 270.015 484.438 269.332 485.805 267.965C487.188 266.581 487.88 264.921 487.88 262.984C487.88 261.047 487.188 259.395 485.805 258.028C484.438 256.645 482.786 255.953 480.849 255.953C478.912 255.953 477.252 256.645 475.868 258.028ZM474.623 269.21C472.914 267.484 472.06 265.409 472.06 262.984C472.06 260.559 472.914 258.492 474.623 256.783C476.349 255.058 478.424 254.195 480.849 254.195C483.274 254.195 485.341 255.058 487.05 256.783C488.775 258.492 489.638 260.559 489.638 262.984C489.638 265.409 488.775 267.484 487.05 269.21C485.341 270.919 483.274 271.773 480.849 271.773C478.424 271.773 476.349 270.919 474.623 269.21ZM473.378 255.538C471.327 257.605 470.302 260.087 470.302 262.984C470.302 265.881 471.327 268.363 473.378 270.43C475.445 272.497 477.935 273.531 480.849 273.531C483.762 273.531 486.244 272.497 488.295 270.43C490.362 268.363 491.396 265.881 491.396 262.984C491.396 260.087 490.362 257.605 488.295 255.538C486.244 253.471 483.762 252.437 480.849 252.437C477.935 252.437 475.445 253.471 473.378 255.538ZM470.18 269.161C469.089 267.273 468.544 265.214 468.544 262.984C468.544 260.754 469.089 258.695 470.18 256.807C471.287 254.919 472.784 253.43 474.672 252.34C476.56 251.233 478.619 250.679 480.849 250.679C483.079 250.679 485.138 251.233 487.026 252.34C488.914 253.43 490.403 254.919 491.493 256.807C492.6 258.695 493.154 260.754 493.154 262.984C493.154 265.214 492.6 267.273 491.493 269.161C490.403 271.049 488.914 272.546 487.026 273.653C485.138 274.744 483.079 275.289 480.849 275.289C478.619 275.289 476.56 274.744 474.672 273.653C472.784 272.546 471.287 271.049 470.18 269.161ZM467.885 257.54C467.153 259.265 466.786 261.08 466.786 262.984C466.786 264.888 467.153 266.711 467.885 268.453C468.634 270.178 469.635 271.676 470.888 272.945C472.157 274.198 473.655 275.199 475.38 275.948C477.122 276.68 478.945 277.047 480.849 277.047C482.753 277.047 484.568 276.68 486.293 275.948C488.035 275.199 489.532 274.198 490.785 272.945C492.055 271.676 493.056 270.178 493.788 268.453C494.537 266.711 494.911 264.888 494.911 262.984C494.911 261.08 494.537 259.265 493.788 257.54C493.056 255.798 492.055 254.301 490.785 253.048C489.532 251.778 488.035 250.777 486.293 250.045C484.568 249.296 482.753 248.922 480.849 248.922C478.945 248.922 477.122 249.296 475.38 250.045C473.655 250.777 472.157 251.778 470.888 253.048C469.635 254.301 468.634 255.798 467.885 257.54ZM466.274 269.136C465.444 267.183 465.029 265.133 465.029 262.984C465.029 260.836 465.444 258.785 466.274 256.832C467.12 254.879 468.243 253.202 469.643 251.802C471.059 250.386 472.743 249.263 474.697 248.433C476.65 247.587 478.7 247.164 480.849 247.164C482.997 247.164 485.048 247.587 487.001 248.433C488.954 249.263 490.631 250.386 492.031 251.802C493.447 253.202 494.57 254.879 495.4 256.832C496.246 258.785 496.669 260.836 496.669 262.984C496.669 265.133 496.246 267.183 495.4 269.136C494.57 271.09 493.447 272.774 492.031 274.19C490.631 275.59 488.954 276.713 487.001 277.559C485.048 278.389 482.997 278.804 480.849 278.804C478.7 278.804 476.65 278.389 474.697 277.559C472.743 276.713 471.059 275.59 469.643 274.19C468.243 272.774 467.12 271.09 466.274 269.136ZM464.662 256.173C463.735 258.337 463.271 260.608 463.271 262.984C463.271 265.36 463.735 267.639 464.662 269.82C465.59 271.985 466.835 273.857 468.398 275.435C469.976 276.998 471.848 278.243 474.013 279.171C476.194 280.098 478.473 280.562 480.849 280.562C483.225 280.562 485.496 280.098 487.66 279.171C489.841 278.243 491.713 276.998 493.276 275.435C494.854 273.857 496.108 271.985 497.035 269.82C497.963 267.639 498.427 265.36 498.427 262.984C498.427 260.608 497.963 258.337 497.035 256.173C496.108 253.992 494.854 252.12 493.276 250.557C491.713 248.979 489.841 247.725 487.66 246.798C485.496 245.87 483.225 245.406 480.849 245.406C478.473 245.406 476.194 245.87 474.013 246.798C471.848 247.725 469.976 248.979 468.398 250.557C466.835 252.12 465.59 253.992 464.662 256.173ZM463.051 270.504C462.026 268.111 461.513 265.605 461.513 262.984C461.513 260.364 462.026 257.865 463.051 255.489C464.076 253.096 465.452 251.038 467.177 249.312C468.902 247.587 470.953 246.212 473.329 245.186C475.722 244.161 478.228 243.648 480.849 243.648C483.469 243.648 485.968 244.161 488.344 245.186C490.737 246.212 492.795 247.587 494.521 249.312C496.246 251.038 497.621 253.096 498.647 255.489C499.672 257.865 500.185 260.364 500.185 262.984C500.185 265.605 499.672 268.111 498.647 270.504C497.621 272.88 496.246 274.931 494.521 276.656C492.795 278.381 490.737 279.757 488.344 280.782C485.968 281.807 483.469 282.32 480.849 282.32C478.228 282.32 475.722 281.807 473.329 280.782C470.953 279.757 468.902 278.381 467.177 276.656C465.452 274.931 464.076 272.88 463.051 270.504Z" fill="white"/>
<path d="M224.534 130.244H483.205C485.967 130.244 488.205 132.483 488.205 135.244V235.113" stroke="white"/>
<path d="M224.534 217.136V272.061C224.534 274.822 226.773 277.061 229.534 277.061H288.954" stroke="white"/>
</svg>
