<svg width="161" height="119" viewBox="0 0 161 119" fill="none" xmlns="http://www.w3.org/2000/svg">
<ellipse cx="91.7" cy="112" rx="7" ry="7.7" transform="rotate(-90 91.7 112)" fill="#FFB13C"/>
<ellipse cx="112.233" cy="112" rx="7" ry="7.7" transform="rotate(-90 112.233 112)" fill="#FFB13C"/>
<ellipse cx="132.767" cy="112" rx="7" ry="7.7" transform="rotate(-90 132.767 112)" fill="#FFB13C"/>
<ellipse cx="153.3" cy="112" rx="7" ry="7.7" transform="rotate(-90 153.3 112)" fill="#FFB13C"/>
<ellipse cx="91.7" cy="91" rx="7" ry="7.7" transform="rotate(-90 91.7 91)" fill="#FFB13C"/>
<ellipse cx="112.233" cy="91" rx="7" ry="7.7" transform="rotate(-90 112.233 91)" fill="#FFB13C"/>
<ellipse cx="132.767" cy="91" rx="7" ry="7.7" transform="rotate(-90 132.767 91)" fill="#FFB13C"/>
<ellipse cx="153.3" cy="91" rx="7" ry="7.7" transform="rotate(-90 153.3 91)" fill="#FFB13C"/>
<ellipse cx="91.7" cy="70" rx="7" ry="7.7" transform="rotate(-90 91.7 70)" fill="#FFB13C"/>
<ellipse cx="112.233" cy="70" rx="7" ry="7.7" transform="rotate(-90 112.233 70)" fill="#FFB13C"/>
<ellipse cx="132.767" cy="70" rx="7" ry="7.7" transform="rotate(-90 132.767 70)" fill="#FFB13C"/>
<ellipse cx="153.3" cy="70" rx="7" ry="7.7" transform="rotate(-90 153.3 70)" fill="#FFB13C"/>
<ellipse cx="91.7" cy="49" rx="7" ry="7.7" transform="rotate(-90 91.7 49)" fill="#FFB13C"/>
<ellipse cx="112.233" cy="49" rx="7" ry="7.7" transform="rotate(-90 112.233 49)" fill="#FFB13C"/>
<ellipse cx="132.767" cy="49" rx="7" ry="7.7" transform="rotate(-90 132.767 49)" fill="#FFB13C"/>
<ellipse cx="153.3" cy="49" rx="7" ry="7.7" transform="rotate(-90 153.3 49)" fill="#FFB13C"/>
<ellipse cx="91.7" cy="28" rx="7" ry="7.7" transform="rotate(-90 91.7 28)" fill="#FFB13C"/>
<ellipse cx="112.233" cy="28" rx="7" ry="7.7" transform="rotate(-90 112.233 28)" fill="#FFB13C"/>
<ellipse cx="132.767" cy="28" rx="7" ry="7.7" transform="rotate(-90 132.767 28)" fill="#FFB13C"/>
<ellipse cx="153.3" cy="28" rx="7" ry="7.7" transform="rotate(-90 153.3 28)" fill="#FFB13C"/>
<ellipse cx="91.7" cy="7" rx="7" ry="7.7" transform="rotate(-90 91.7 7)" fill="#FFB13C"/>
<ellipse cx="112.233" cy="7" rx="7" ry="7.7" transform="rotate(-90 112.233 7)" fill="#FFB13C"/>
<ellipse cx="132.767" cy="7" rx="7" ry="7.7" transform="rotate(-90 132.767 7)" fill="#FFB13C"/>
<ellipse cx="153.3" cy="7" rx="7" ry="7.7" transform="rotate(-90 153.3 7)" fill="#FFB13C"/>
<ellipse cx="7.5" cy="112" rx="7" ry="7.5" transform="rotate(-90 7.5 112)" fill="#FFB13C"/>
<ellipse cx="27.5" cy="112" rx="7" ry="7.5" transform="rotate(-90 27.5 112)" fill="#FFB13C"/>
<ellipse cx="47.5" cy="112" rx="7" ry="7.5" transform="rotate(-90 47.5 112)" fill="#FFB13C"/>
<ellipse cx="67.5" cy="112" rx="7" ry="7.5" transform="rotate(-90 67.5 112)" fill="#FFB13C"/>
<ellipse cx="7.5" cy="91" rx="7" ry="7.5" transform="rotate(-90 7.5 91)" fill="#FFB13C"/>
<ellipse cx="27.5" cy="91" rx="7" ry="7.5" transform="rotate(-90 27.5 91)" fill="#FFB13C"/>
<ellipse cx="47.5" cy="91" rx="7" ry="7.5" transform="rotate(-90 47.5 91)" fill="#FFB13C"/>
<ellipse cx="67.5" cy="91" rx="7" ry="7.5" transform="rotate(-90 67.5 91)" fill="#FFB13C"/>
<ellipse cx="7.5" cy="70" rx="7" ry="7.5" transform="rotate(-90 7.5 70)" fill="#FFB13C"/>
<ellipse cx="27.5" cy="70" rx="7" ry="7.5" transform="rotate(-90 27.5 70)" fill="#FFB13C"/>
<ellipse cx="47.5" cy="70" rx="7" ry="7.5" transform="rotate(-90 47.5 70)" fill="#FFB13C"/>
<ellipse cx="67.5" cy="70" rx="7" ry="7.5" transform="rotate(-90 67.5 70)" fill="#FFB13C"/>
<ellipse cx="7.5" cy="49" rx="7" ry="7.5" transform="rotate(-90 7.5 49)" fill="#FFB13C"/>
<ellipse cx="27.5" cy="49" rx="7" ry="7.5" transform="rotate(-90 27.5 49)" fill="#FFB13C"/>
<ellipse cx="47.5" cy="49" rx="7" ry="7.5" transform="rotate(-90 47.5 49)" fill="#FFB13C"/>
<ellipse cx="67.5" cy="49" rx="7" ry="7.5" transform="rotate(-90 67.5 49)" fill="#FFB13C"/>
<ellipse cx="7.5" cy="28" rx="7" ry="7.5" transform="rotate(-90 7.5 28)" fill="#FFB13C"/>
<ellipse cx="27.5" cy="28" rx="7" ry="7.5" transform="rotate(-90 27.5 28)" fill="#FFB13C"/>
<ellipse cx="47.5" cy="28" rx="7" ry="7.5" transform="rotate(-90 47.5 28)" fill="#FFB13C"/>
<ellipse cx="67.5" cy="28" rx="7" ry="7.5" transform="rotate(-90 67.5 28)" fill="#FFB13C"/>
<ellipse cx="7.5" cy="7" rx="7" ry="7.5" transform="rotate(-90 7.5 7)" fill="#FFB13C"/>
<ellipse cx="27.5" cy="7" rx="7" ry="7.5" transform="rotate(-90 27.5 7)" fill="#FFB13C"/>
<ellipse cx="47.5" cy="7" rx="7" ry="7.5" transform="rotate(-90 47.5 7)" fill="#FFB13C"/>
<ellipse cx="67.5" cy="7" rx="7" ry="7.5" transform="rotate(-90 67.5 7)" fill="#FFB13C"/>
</svg>