<svg width="202" height="30" viewBox="0 0 202 30" fill="none" xmlns="http://www.w3.org/2000/svg">
<path d="M7.73578 14.24L7.35578 13.74C7.52912 13.7133 7.72245 13.6933 7.93578 13.68C8.14912 13.6533 8.37578 13.64 8.61578 13.64C8.85578 13.6267 9.08912 13.62 9.31578 13.62C11.2891 13.62 12.9758 13.9133 14.3758 14.5C15.7891 15.0733 16.8624 15.9133 17.5958 17.02C18.3424 18.1267 18.7158 19.48 18.7158 21.08C18.7158 22.7733 18.3158 24.26 17.5158 25.54C16.7158 26.8067 15.5824 27.7933 14.1158 28.5C12.6624 29.1933 10.9558 29.54 8.99578 29.54C7.10245 29.54 5.50245 29.2733 4.19578 28.74C2.90245 28.1933 1.91578 27.46 1.23578 26.54C0.569115 25.62 0.235781 24.5933 0.235781 23.46C0.235781 22.6067 0.462448 21.9333 0.915781 21.44C1.36911 20.9333 1.94245 20.68 2.63578 20.68C3.31578 20.68 3.82911 20.8867 4.17578 21.3C4.53578 21.7 4.71578 22.2533 4.71578 22.96V24.76C4.71578 25.84 5.08911 26.7133 5.83578 27.38C6.59578 28.0333 7.68911 28.36 9.11578 28.36C10.1291 28.36 11.0224 28.12 11.7958 27.64C12.5824 27.1467 13.2024 26.42 13.6558 25.46C14.1091 24.5 14.3358 23.3067 14.3358 21.88C14.3358 19.5733 13.8224 17.8667 12.7958 16.76C11.7824 15.64 10.2491 15.08 8.19578 15.08H6.89578C6.58911 15.08 6.36245 15.02 6.21578 14.9C6.06911 14.78 5.99578 14.6067 5.99578 14.38C5.99578 14.2067 6.04245 14.0467 6.13578 13.9C6.22912 13.74 6.40911 13.52 6.67578 13.24L15.7958 3.42L15.9358 4.6H4.59578C4.19578 4.6 3.88245 4.68 3.65578 4.84C3.44245 4.98667 3.28911 5.23333 3.19578 5.58L2.59578 7.98C2.55578 8.18 2.46245 8.34667 2.31578 8.48C2.16911 8.6 1.97578 8.66 1.73578 8.66C1.50911 8.64667 1.32245 8.56667 1.17578 8.42C1.02911 8.27333 0.975781 8.05333 1.01578 7.76L1.63578 2.12C1.67578 1.77333 1.81578 1.5 2.05578 1.3C2.30911 1.1 2.65578 0.999998 3.09578 0.999998H17.9358C18.2958 0.999998 18.5558 1.05333 18.7158 1.16C18.8891 1.26667 18.9758 1.42667 18.9758 1.64C18.9758 1.8 18.9158 1.98 18.7958 2.18C18.6758 2.38 18.4224 2.68 18.0358 3.08L7.73578 14.24ZM36.6048 4.38L37.3448 4.9H24.6448C24.2448 4.9 23.9448 4.97333 23.7448 5.12C23.5582 5.26667 23.4182 5.52 23.3248 5.88L22.6648 8.38C22.6115 8.59333 22.5115 8.76 22.3648 8.88C22.2182 9 22.0315 9.06 21.8048 9.06C21.5515 9.06 21.3582 8.98667 21.2248 8.84C21.0915 8.69333 21.0382 8.47333 21.0648 8.18L21.6648 2.08C21.6915 1.74667 21.8115 1.48667 22.0248 1.3C22.2515 1.1 22.5715 0.999998 22.9848 0.999998H38.8448C39.2048 0.999998 39.4782 1.08 39.6648 1.24C39.8515 1.38667 39.9448 1.59333 39.9448 1.86C39.9448 2.04667 39.8915 2.24667 39.7848 2.46C39.6915 2.67333 39.4848 2.98666 39.1648 3.4L33.5248 12.44C32.7915 13.4933 32.1715 14.4467 31.6648 15.3C31.1715 16.14 30.7715 16.9067 30.4648 17.6C30.1715 18.2933 29.9582 18.9333 29.8248 19.52C29.6915 20.1067 29.6248 20.6667 29.6248 21.2C29.6248 21.8 29.7248 22.3267 29.9248 22.78C30.1382 23.22 30.3848 23.64 30.6648 24.04C30.9448 24.44 31.1915 24.86 31.4048 25.3C31.6182 25.7267 31.7248 26.2267 31.7248 26.8C31.7115 27.5733 31.4582 28.22 30.9648 28.74C30.4848 29.26 29.7782 29.52 28.8448 29.52C27.8448 29.52 27.0448 29.16 26.4448 28.44C25.8448 27.72 25.5448 26.6333 25.5448 25.18C25.5448 24.0867 25.7048 22.9867 26.0248 21.88C26.3448 20.76 26.8515 19.56 27.5448 18.28C28.2515 16.9867 29.1848 15.54 30.3448 13.94L36.6048 4.38ZM50.6986 28.36C50.6986 28.0133 50.9186 27.78 51.3586 27.66L52.7786 27.4C53.0853 27.3333 53.3186 27.22 53.4786 27.06C53.6386 26.9 53.7186 26.6867 53.7186 26.42V3.6C53.7186 3.32 53.6386 3.1 53.4786 2.94C53.3186 2.78 53.0853 2.66667 52.7786 2.6L51.3586 2.34C50.9186 2.22 50.6986 1.98667 50.6986 1.64C50.6986 1.42667 50.7653 1.26667 50.8986 1.16C51.0453 1.05333 51.2586 0.999998 51.5386 0.999998H61.1386C63.6319 0.999998 65.8919 1.36 67.9186 2.08C69.9453 2.8 71.6853 3.82667 73.1386 5.16C74.6053 6.48 75.7253 8.04667 76.4986 9.86C77.2853 11.6733 77.6786 13.6733 77.6786 15.86C77.6786 18.42 77.0919 20.6867 75.9186 22.66C74.7586 24.6333 73.0853 26.1867 70.8986 27.32C68.7119 28.44 66.0853 29 63.0186 29H51.5386C51.2453 29 51.0319 28.9467 50.8986 28.84C50.7653 28.72 50.6986 28.56 50.6986 28.36ZM62.7586 27.58C64.8253 27.58 66.6119 27.1333 68.1186 26.24C69.6386 25.3333 70.8119 24 71.6386 22.24C72.4786 20.4667 72.8986 18.28 72.8986 15.68C72.8986 13.64 72.6119 11.8067 72.0386 10.18C71.4786 8.55333 70.6653 7.16667 69.5986 6.02C68.5453 4.86 67.2653 3.97333 65.7586 3.36C64.2653 2.73333 62.5786 2.42 60.6986 2.42H58.2986V26.04C58.2986 26.5733 58.4586 26.9667 58.7786 27.22C59.0986 27.46 59.5786 27.58 60.2186 27.58H62.7586ZM87.4398 14.26H94.2798C95.1198 14.26 95.7132 14.0933 96.0598 13.76C96.4065 13.4133 96.6398 12.76 96.7598 11.8C96.7998 11.56 96.8732 11.38 96.9798 11.26C97.0998 11.14 97.2532 11.0733 97.4398 11.06C97.8132 11.0067 98.0598 11.22 98.1798 11.7L99.7398 17.52C99.8065 17.7733 99.8065 17.9733 99.7398 18.12C99.6732 18.2667 99.5398 18.3733 99.3398 18.44C99.1532 18.4933 98.9732 18.4867 98.7998 18.42C98.6398 18.3533 98.4998 18.2267 98.3798 18.04C98.0198 17.4 97.6865 16.9133 97.3798 16.58C97.0732 16.2333 96.7332 16 96.3598 15.88C95.9865 15.7467 95.5132 15.68 94.9398 15.68H87.4398V14.26ZM81.4798 1.64C81.4798 1.44 81.5465 1.28667 81.6798 1.18C81.8265 1.06 82.0398 0.999998 82.3198 0.999998H97.6998C98.0998 0.999998 98.4332 0.933331 98.6998 0.799998C98.9665 0.666665 99.2132 0.533332 99.4398 0.399999C99.6665 0.266665 99.9132 0.199999 100.18 0.199999C100.447 0.199999 100.653 0.279999 100.8 0.439998C100.947 0.586665 101.073 0.839999 101.18 1.2L102.74 6.94C102.82 7.18 102.82 7.38 102.74 7.54C102.66 7.7 102.513 7.81333 102.3 7.88C102.073 7.94667 101.86 7.93333 101.66 7.84C101.473 7.74667 101.32 7.58 101.2 7.34C100.693 6.28667 100.233 5.44 99.8198 4.8C99.4065 4.14667 98.9865 3.65333 98.5598 3.32C98.1465 2.97333 97.6932 2.74 97.1998 2.62C96.7198 2.5 96.1598 2.44 95.5198 2.44H89.0798V25.94C89.0798 26.4867 89.2465 26.8933 89.5798 27.16C89.9132 27.4267 90.4265 27.56 91.1198 27.56H96.0398C96.8932 27.56 97.6265 27.4133 98.2398 27.12C98.8532 26.8267 99.4532 26.24 100.04 25.36C100.627 24.48 101.293 23.1733 102.04 21.44C102.133 21.2267 102.26 21.08 102.42 21C102.58 20.9067 102.753 20.88 102.94 20.92C103.18 20.9467 103.347 21.0467 103.44 21.22C103.547 21.38 103.567 21.6 103.5 21.88L101.82 28.68C101.713 29.04 101.58 29.3 101.42 29.46C101.26 29.6333 101.033 29.72 100.74 29.72C100.5 29.72 100.267 29.66 100.04 29.54C99.8132 29.42 99.5598 29.3 99.2798 29.18C98.9998 29.06 98.6598 29 98.2598 29H82.3198C82.0398 29 81.8265 28.94 81.6798 28.82C81.5465 28.7 81.4798 28.5467 81.4798 28.36C81.4798 28.0133 81.6998 27.78 82.1398 27.66L83.5398 27.42C83.8598 27.34 84.0998 27.22 84.2598 27.06C84.4198 26.9 84.4998 26.6867 84.4998 26.42V3.58C84.4998 3.31333 84.4198 3.1 84.2598 2.94C84.0998 2.78 83.8598 2.66 83.5398 2.58L82.1398 2.34C81.6998 2.22 81.4798 1.98667 81.4798 1.64ZM117.63 29.6C116.443 29.6 115.43 29.4467 114.59 29.14C113.75 28.8467 113.07 28.5533 112.55 28.26C112.043 27.9533 111.683 27.8 111.47 27.8C111.256 27.8 111.083 27.8933 110.95 28.08C110.83 28.2533 110.71 28.46 110.59 28.7C110.47 28.94 110.336 29.1533 110.19 29.34C110.056 29.5267 109.883 29.62 109.67 29.62C109.47 29.62 109.303 29.5533 109.17 29.42C109.05 29.3 108.963 29.1067 108.91 28.84L107.41 22.26C107.356 22.0467 107.376 21.86 107.47 21.7C107.563 21.54 107.71 21.4267 107.91 21.36C108.136 21.28 108.336 21.2867 108.51 21.38C108.683 21.46 108.83 21.6267 108.95 21.88C109.683 23.4133 110.503 24.64 111.41 25.56C112.316 26.4667 113.276 27.1267 114.29 27.54C115.303 27.94 116.336 28.14 117.39 28.14C118.883 28.14 120.056 27.7333 120.91 26.92C121.763 26.1067 122.19 25.0267 122.19 23.68C122.203 22.84 122.016 22.0667 121.63 21.36C121.256 20.64 120.556 19.9533 119.53 19.3C118.503 18.6333 117.01 17.9667 115.05 17.3C113.05 16.5933 111.45 15.8133 110.25 14.96C109.05 14.1067 108.176 13.1333 107.63 12.04C107.083 10.9333 106.81 9.68 106.81 8.28C106.81 6.72 107.176 5.36 107.91 4.2C108.656 3.02667 109.683 2.11333 110.99 1.46C112.31 0.806664 113.83 0.479998 115.55 0.479998C116.803 0.479998 117.823 0.619998 118.61 0.899998C119.41 1.18 120.05 1.46667 120.53 1.76C121.01 2.04 121.39 2.18 121.67 2.18C121.95 2.18 122.15 2.04 122.27 1.76C122.403 1.48 122.536 1.19333 122.67 0.899998C122.816 0.606665 123.043 0.459999 123.35 0.459999C123.55 0.459999 123.716 0.526666 123.85 0.659999C123.983 0.793332 124.096 1.02667 124.19 1.36L126.15 8.12C126.23 8.36 126.223 8.58 126.13 8.78C126.05 8.98 125.903 9.11333 125.69 9.18C125.463 9.26 125.263 9.25333 125.09 9.16C124.916 9.06667 124.77 8.90667 124.65 8.68C123.823 7 122.943 5.67333 122.01 4.7C121.076 3.71333 120.096 3.00667 119.07 2.58C118.043 2.15333 116.99 1.94 115.91 1.94C114.376 1.94 113.15 2.38667 112.23 3.28C111.31 4.16 110.85 5.34 110.85 6.82C110.85 7.67333 111.036 8.47333 111.41 9.22C111.796 9.96667 112.49 10.6867 113.49 11.38C114.503 12.06 115.936 12.7467 117.79 13.44C119.87 14.2 121.516 15.0067 122.73 15.86C123.943 16.7133 124.81 17.66 125.33 18.7C125.85 19.7267 126.103 20.8867 126.09 22.18C126.09 23.54 125.756 24.7867 125.09 25.92C124.436 27.04 123.483 27.9333 122.23 28.6C120.976 29.2667 119.443 29.6 117.63 29.6ZM137.888 26.42C137.888 26.6867 137.968 26.9 138.128 27.06C138.301 27.22 138.535 27.34 138.828 27.42L140.228 27.66C140.681 27.78 140.908 28.0133 140.908 28.36C140.908 28.56 140.841 28.72 140.708 28.84C140.575 28.9467 140.355 29 140.048 29H131.128C130.835 29 130.621 28.9467 130.488 28.84C130.355 28.72 130.288 28.56 130.288 28.36C130.288 28.0133 130.508 27.78 130.948 27.66L132.348 27.42C132.668 27.34 132.908 27.22 133.068 27.06C133.228 26.9 133.308 26.6867 133.308 26.42V3.58C133.308 3.31333 133.228 3.1 133.068 2.94C132.908 2.78 132.668 2.66 132.348 2.58L130.948 2.34C130.508 2.22 130.288 1.98667 130.288 1.64C130.288 1.44 130.355 1.28667 130.488 1.18C130.621 1.06 130.835 0.999998 131.128 0.999998H140.048C140.355 0.999998 140.575 1.06 140.708 1.18C140.841 1.28667 140.908 1.44 140.908 1.64C140.908 1.98667 140.681 2.22 140.228 2.34L138.828 2.58C138.535 2.66 138.301 2.78 138.128 2.94C137.968 3.1 137.888 3.31333 137.888 3.58V26.42ZM168.932 28.64C168.932 29.0133 168.865 29.28 168.732 29.44C168.598 29.6 168.392 29.68 168.112 29.68C167.845 29.68 167.605 29.5733 167.392 29.36C167.178 29.16 166.978 28.9267 166.792 28.66C166.605 28.3933 166.418 28.16 166.232 27.96C166.045 27.76 165.845 27.66 165.632 27.66C165.392 27.66 165.085 27.76 164.712 27.96C164.352 28.16 163.892 28.3933 163.332 28.66C162.785 28.9267 162.112 29.16 161.312 29.36C160.525 29.56 159.578 29.66 158.472 29.66C156.352 29.66 154.445 29.3067 152.752 28.6C151.058 27.88 149.612 26.8733 148.412 25.58C147.225 24.2867 146.312 22.7533 145.672 20.98C145.045 19.2067 144.732 17.2533 144.732 15.12C144.732 12.9867 145.072 11.02 145.752 9.22C146.432 7.42 147.385 5.86 148.612 4.54C149.852 3.22 151.305 2.2 152.972 1.48C154.652 0.746665 156.478 0.379998 158.452 0.379998C159.892 0.379998 161.065 0.526665 161.972 0.819999C162.892 1.11333 163.605 1.40667 164.112 1.7C164.632 1.99333 165.012 2.14 165.252 2.14C165.558 2.14 165.792 2.01333 165.952 1.76C166.112 1.50667 166.272 1.25333 166.432 0.999998C166.605 0.746666 166.838 0.619999 167.132 0.619999C167.305 0.619999 167.445 0.673333 167.552 0.78C167.672 0.886665 167.772 1.07333 167.852 1.34L169.872 8.32C169.952 8.54667 169.938 8.75333 169.832 8.94C169.725 9.11333 169.552 9.22 169.312 9.26C169.098 9.3 168.905 9.27333 168.732 9.18C168.558 9.08667 168.418 8.92667 168.312 8.7C167.565 7.04667 166.718 5.72667 165.772 4.74C164.825 3.74 163.772 3.01333 162.612 2.56C161.465 2.10667 160.205 1.88 158.832 1.88C157.018 1.88 155.398 2.38 153.972 3.38C152.545 4.38 151.418 5.8 150.592 7.64C149.778 9.48 149.372 11.66 149.372 14.18C149.372 17.0333 149.825 19.4733 150.732 21.5C151.638 23.5133 152.872 25.0533 154.432 26.12C155.992 27.1867 157.745 27.72 159.692 27.72C160.425 27.72 161.098 27.6533 161.712 27.52C162.338 27.3867 162.872 27.1933 163.312 26.94C163.765 26.6867 164.118 26.3733 164.372 26C164.625 25.6267 164.752 25.2067 164.752 24.74V19.4C164.752 19.0933 164.665 18.8667 164.492 18.72C164.332 18.56 164.025 18.44 163.572 18.36L161.932 18.08C161.678 18.0267 161.485 17.9467 161.352 17.84C161.218 17.72 161.152 17.58 161.152 17.42C161.152 17.22 161.225 17.0733 161.372 16.98C161.518 16.8733 161.738 16.82 162.032 16.82H170.872C171.165 16.82 171.385 16.8733 171.532 16.98C171.678 17.0733 171.752 17.2133 171.752 17.4C171.752 17.5733 171.698 17.7133 171.592 17.82C171.498 17.9133 171.325 17.9933 171.072 18.06L170.052 18.3C169.652 18.4067 169.365 18.54 169.192 18.7C169.018 18.8467 168.932 19.08 168.932 19.4V28.64ZM183.375 28.36C183.375 28.5467 183.302 28.7 183.155 28.82C183.009 28.94 182.782 29 182.475 29H175.515C175.222 29 175.002 28.94 174.855 28.82C174.709 28.7 174.635 28.5467 174.635 28.36C174.635 28.0533 174.862 27.82 175.315 27.66L176.555 27.32C177.142 27.1333 177.542 26.92 177.755 26.68C177.982 26.4267 178.095 26.02 178.095 25.46V6.52C178.095 6.16 178.049 5.86 177.955 5.62C177.862 5.36667 177.629 5.02 177.255 4.58L175.475 2.34C175.329 2.12666 175.222 1.96666 175.155 1.86C175.089 1.74 175.055 1.62667 175.055 1.52C175.055 1.34667 175.115 1.22 175.235 1.14C175.369 1.04667 175.542 0.999998 175.755 0.999998H179.355C179.649 0.999998 179.895 1.06 180.095 1.18C180.309 1.28667 180.529 1.49333 180.755 1.8L197.395 23.9L196.655 25.44V4.54C196.655 3.99333 196.549 3.59333 196.335 3.34C196.135 3.08667 195.722 2.86667 195.095 2.68L193.715 2.34C193.262 2.16667 193.035 1.93333 193.035 1.64C193.035 1.44 193.109 1.28667 193.255 1.18C193.402 1.06 193.622 0.999998 193.915 0.999998H200.875C201.182 0.999998 201.409 1.06 201.555 1.18C201.702 1.28667 201.775 1.44 201.775 1.64C201.775 1.94667 201.549 2.18 201.095 2.34L199.855 2.68C199.269 2.85333 198.862 3.06667 198.635 3.32C198.422 3.57333 198.315 3.98 198.315 4.54V24.26C198.315 24.6067 198.349 24.9 198.415 25.14C198.482 25.3667 198.595 25.5933 198.755 25.82L200.015 27.46C200.202 27.7133 200.322 27.9067 200.375 28.04C200.429 28.1733 200.455 28.3 200.455 28.42C200.455 28.5933 200.389 28.7333 200.255 28.84C200.135 28.9467 199.949 29 199.695 29H195.615C195.135 29 194.895 28.8067 194.895 28.42C194.895 28.2333 194.862 28.06 194.795 27.9C194.729 27.74 194.535 27.4533 194.215 27.04L178.415 6L179.755 5.06V25.48C179.755 26.0133 179.862 26.4067 180.075 26.66C180.289 26.9 180.695 27.12 181.295 27.32L182.695 27.66C183.149 27.82 183.375 28.0533 183.375 28.36Z" fill="#E2DA1E"/>
</svg>
