<svg width="218" height="49" viewBox="0 0 218 49" fill="none" xmlns="http://www.w3.org/2000/svg">
<path d="M15.1889 24.24L14.8089 23.74C14.9822 23.7133 15.1756 23.6933 15.3889 23.68C15.6022 23.6533 15.8289 23.64 16.0689 23.64C16.3089 23.6267 16.5422 23.62 16.7689 23.62C18.7422 23.62 20.4289 23.9133 21.8289 24.5C23.2422 25.0733 24.3156 25.9133 25.0489 27.02C25.7956 28.1267 26.1689 29.48 26.1689 31.08C26.1689 32.7733 25.7689 34.26 24.9689 35.54C24.1689 36.8067 23.0356 37.7933 21.5689 38.5C20.1156 39.1933 18.4089 39.54 16.4489 39.54C14.5556 39.54 12.9556 39.2733 11.6489 38.74C10.3556 38.1933 9.36891 37.46 8.68891 36.54C8.02224 35.62 7.68891 34.5933 7.68891 33.46C7.68891 32.6067 7.91557 31.9333 8.36891 31.44C8.82224 30.9333 9.39557 30.68 10.0889 30.68C10.7689 30.68 11.2822 30.8867 11.6289 31.3C11.9889 31.7 12.1689 32.2533 12.1689 32.96V34.76C12.1689 35.84 12.5422 36.7133 13.2889 37.38C14.0489 38.0333 15.1422 38.36 16.5689 38.36C17.5822 38.36 18.4756 38.12 19.2489 37.64C20.0356 37.1467 20.6556 36.42 21.1089 35.46C21.5622 34.5 21.7889 33.3067 21.7889 31.88C21.7889 29.5733 21.2756 27.8667 20.2489 26.76C19.2356 25.64 17.7022 25.08 15.6489 25.08H14.3489C14.0422 25.08 13.8156 25.02 13.6689 24.9C13.5222 24.78 13.4489 24.6067 13.4489 24.38C13.4489 24.2067 13.4956 24.0467 13.5889 23.9C13.6822 23.74 13.8622 23.52 14.1289 23.24L23.2489 13.42L23.3889 14.6H12.0489C11.6489 14.6 11.3356 14.68 11.1089 14.84C10.8956 14.9867 10.7422 15.2333 10.6489 15.58L10.0489 17.98C10.0089 18.18 9.91557 18.3467 9.76891 18.48C9.62224 18.6 9.42891 18.66 9.18891 18.66C8.96224 18.6467 8.77557 18.5667 8.62891 18.42C8.48224 18.2733 8.42891 18.0533 8.46891 17.76L9.08891 12.12C9.12891 11.7733 9.26891 11.5 9.50891 11.3C9.76224 11.1 10.1089 11 10.5489 11H25.3889C25.7489 11 26.0089 11.0533 26.1689 11.16C26.3422 11.2667 26.4289 11.4267 26.4289 11.64C26.4289 11.8 26.3689 11.98 26.2489 12.18C26.1289 12.38 25.8756 12.68 25.4889 13.08L15.1889 24.24ZM44.058 14.38L44.798 14.9H32.098C31.698 14.9 31.398 14.9733 31.198 15.12C31.0113 15.2667 30.8713 15.52 30.778 15.88L30.118 18.38C30.0646 18.5933 29.9646 18.76 29.818 18.88C29.6713 19 29.4846 19.06 29.258 19.06C29.0046 19.06 28.8113 18.9867 28.678 18.84C28.5446 18.6933 28.4913 18.4733 28.518 18.18L29.118 12.08C29.1446 11.7467 29.2646 11.4867 29.478 11.3C29.7046 11.1 30.0246 11 30.438 11H46.298C46.658 11 46.9313 11.08 47.118 11.24C47.3046 11.3867 47.398 11.5933 47.398 11.86C47.398 12.0467 47.3446 12.2467 47.238 12.46C47.1446 12.6733 46.938 12.9867 46.618 13.4L40.978 22.44C40.2446 23.4933 39.6246 24.4467 39.118 25.3C38.6246 26.14 38.2246 26.9067 37.918 27.6C37.6246 28.2933 37.4113 28.9333 37.278 29.52C37.1446 30.1067 37.078 30.6667 37.078 31.2C37.078 31.8 37.178 32.3267 37.378 32.78C37.5913 33.22 37.838 33.64 38.118 34.04C38.398 34.44 38.6446 34.86 38.858 35.3C39.0713 35.7267 39.178 36.2267 39.178 36.8C39.1646 37.5733 38.9113 38.22 38.418 38.74C37.938 39.26 37.2313 39.52 36.298 39.52C35.298 39.52 34.498 39.16 33.898 38.44C33.298 37.72 32.998 36.6333 32.998 35.18C32.998 34.0867 33.158 32.9867 33.478 31.88C33.798 30.76 34.3046 29.56 34.998 28.28C35.7046 26.9867 36.638 25.54 37.798 23.94L44.058 14.38ZM68.8717 39.6C67.6851 39.6 66.6717 39.4467 65.8317 39.14C64.9917 38.8467 64.3117 38.5533 63.7917 38.26C63.2851 37.9533 62.9251 37.8 62.7117 37.8C62.4984 37.8 62.3251 37.8933 62.1917 38.08C62.0717 38.2533 61.9517 38.46 61.8317 38.7C61.7117 38.94 61.5784 39.1533 61.4317 39.34C61.2984 39.5267 61.1251 39.62 60.9117 39.62C60.7117 39.62 60.5451 39.5533 60.4117 39.42C60.2917 39.3 60.2051 39.1067 60.1517 38.84L58.6517 32.26C58.5984 32.0467 58.6184 31.86 58.7117 31.7C58.8051 31.54 58.9517 31.4267 59.1517 31.36C59.3784 31.28 59.5784 31.2867 59.7517 31.38C59.9251 31.46 60.0717 31.6267 60.1917 31.88C60.9251 33.4133 61.7451 34.64 62.6517 35.56C63.5584 36.4667 64.5184 37.1267 65.5317 37.54C66.5451 37.94 67.5784 38.14 68.6317 38.14C70.1251 38.14 71.2984 37.7333 72.1517 36.92C73.0051 36.1067 73.4317 35.0267 73.4317 33.68C73.4451 32.84 73.2584 32.0667 72.8717 31.36C72.4984 30.64 71.7984 29.9533 70.7717 29.3C69.7451 28.6333 68.2517 27.9667 66.2917 27.3C64.2917 26.5933 62.6917 25.8133 61.4917 24.96C60.2917 24.1067 59.4184 23.1333 58.8717 22.04C58.3251 20.9333 58.0517 19.68 58.0517 18.28C58.0517 16.72 58.4184 15.36 59.1517 14.2C59.8984 13.0267 60.9251 12.1133 62.2317 11.46C63.5517 10.8067 65.0717 10.48 66.7917 10.48C68.0451 10.48 69.0651 10.62 69.8517 10.9C70.6517 11.18 71.2917 11.4667 71.7717 11.76C72.2517 12.04 72.6317 12.18 72.9117 12.18C73.1917 12.18 73.3917 12.04 73.5117 11.76C73.6451 11.48 73.7784 11.1933 73.9117 10.9C74.0584 10.6067 74.2851 10.46 74.5917 10.46C74.7917 10.46 74.9584 10.5267 75.0917 10.66C75.2251 10.7933 75.3384 11.0267 75.4317 11.36L77.3917 18.12C77.4717 18.36 77.4651 18.58 77.3717 18.78C77.2917 18.98 77.1451 19.1133 76.9317 19.18C76.7051 19.26 76.5051 19.2533 76.3317 19.16C76.1584 19.0667 76.0117 18.9067 75.8917 18.68C75.0651 17 74.1851 15.6733 73.2517 14.7C72.3184 13.7133 71.3384 13.0067 70.3117 12.58C69.2851 12.1533 68.2317 11.94 67.1517 11.94C65.6184 11.94 64.3917 12.3867 63.4717 13.28C62.5517 14.16 62.0917 15.34 62.0917 16.82C62.0917 17.6733 62.2784 18.4733 62.6517 19.22C63.0384 19.9667 63.7317 20.6867 64.7317 21.38C65.7451 22.06 67.1784 22.7467 69.0317 23.44C71.1117 24.2 72.7584 25.0067 73.9717 25.86C75.1851 26.7133 76.0517 27.66 76.5717 28.7C77.0917 29.7267 77.3451 30.8867 77.3317 32.18C77.3317 33.54 76.9984 34.7867 76.3317 35.92C75.6784 37.04 74.7251 37.9333 73.4717 38.6C72.2184 39.2667 70.6851 39.6 68.8717 39.6ZM85.0377 11H99.6777C100.091 11 100.424 10.9333 100.678 10.8C100.931 10.6667 101.158 10.54 101.358 10.42C101.571 10.2867 101.791 10.22 102.018 10.22C102.311 10.22 102.538 10.2933 102.698 10.44C102.871 10.5867 103.004 10.8467 103.098 11.22L104.438 17.64C104.504 17.92 104.491 18.1467 104.398 18.32C104.304 18.4933 104.144 18.6067 103.918 18.66C103.704 18.7 103.511 18.6733 103.338 18.58C103.178 18.4867 103.038 18.32 102.918 18.08C102.278 16.48 101.711 15.2867 101.218 14.5C100.738 13.7 100.238 13.1667 99.7177 12.9C99.211 12.62 98.5843 12.48 97.8377 12.48H94.6577V36.42C94.6577 36.6867 94.7377 36.9 94.8977 37.06C95.071 37.22 95.311 37.34 95.6177 37.42L97.0177 37.66C97.4577 37.78 97.6777 38.0133 97.6777 38.36C97.6777 38.7867 97.3977 39 96.8377 39H87.9177C87.6243 39 87.4043 38.94 87.2577 38.82C87.1243 38.7 87.0577 38.5467 87.0577 38.36C87.0577 38.0133 87.2843 37.78 87.7377 37.66L89.1377 37.42C89.4443 37.34 89.6777 37.22 89.8377 37.06C89.9977 36.9 90.0777 36.6867 90.0777 36.42V12.48H86.9177C86.171 12.48 85.5377 12.62 85.0177 12.9C84.511 13.18 84.0177 13.72 83.5377 14.52C83.0577 15.3067 82.4843 16.4933 81.8177 18.08C81.711 18.32 81.571 18.4867 81.3977 18.58C81.2377 18.6733 81.0443 18.7 80.8177 18.66C80.591 18.6067 80.431 18.4933 80.3377 18.32C80.2577 18.1467 80.2443 17.92 80.2977 17.64L81.6577 11.22C81.7377 10.8467 81.8577 10.5867 82.0177 10.44C82.191 10.2933 82.431 10.22 82.7377 10.22C82.9643 10.22 83.171 10.2867 83.3577 10.42C83.5577 10.54 83.7843 10.6667 84.0377 10.8C84.291 10.9333 84.6243 11 85.0377 11ZM129.02 27.2L128.3 14.34C128.273 13.8467 128.14 13.46 127.9 13.18C127.66 12.9 127.267 12.7067 126.72 12.6L125.48 12.36C125.16 12.28 124.94 12.1867 124.82 12.08C124.7 11.96 124.64 11.8133 124.64 11.64C124.64 11.44 124.713 11.2867 124.86 11.18C125.02 11.06 125.233 11 125.5 11H132.64C132.907 11 133.113 11.06 133.26 11.18C133.407 11.2867 133.48 11.44 133.48 11.64C133.48 11.8133 133.413 11.96 133.28 12.08C133.16 12.2 132.947 12.2933 132.64 12.36L131.5 12.58C130.9 12.7133 130.487 12.94 130.26 13.26C130.047 13.5667 129.953 13.9533 129.98 14.42L130.7 27.2C130.74 27.88 130.773 28.5467 130.8 29.2C130.84 29.84 130.873 30.5133 130.9 31.22C130.94 32.8333 130.593 34.28 129.86 35.56C129.127 36.8267 128 37.8267 126.48 38.56C124.973 39.2933 123.073 39.66 120.78 39.66C118.34 39.66 116.3 39.3133 114.66 38.62C113.02 37.9267 111.793 36.9533 110.98 35.7C110.167 34.4467 109.78 32.9867 109.82 31.32C109.82 30.96 109.833 30.5067 109.86 29.96C109.9 29.4 109.933 28.7933 109.96 28.14C110 27.4867 110.04 26.8467 110.08 26.22L110.76 13.72C110.787 13.3733 110.693 13.1133 110.48 12.94C110.28 12.7667 109.967 12.64 109.54 12.56L108.3 12.36C107.74 12.24 107.46 12 107.46 11.64C107.46 11.44 107.533 11.2867 107.68 11.18C107.84 11.06 108.053 11 108.32 11H117.76C118.04 11 118.253 11.06 118.4 11.18C118.547 11.2867 118.62 11.44 118.62 11.64C118.62 11.8133 118.553 11.96 118.42 12.08C118.3 12.2 118.087 12.2867 117.78 12.34L116.52 12.56C116.133 12.6267 115.847 12.7467 115.66 12.92C115.487 13.08 115.387 13.34 115.36 13.7L114.68 26.12C114.627 27.1067 114.587 28 114.56 28.8C114.533 29.5867 114.513 30.3067 114.5 30.96C114.447 33.32 115.06 35.08 116.34 36.24C117.633 37.4 119.427 37.98 121.72 37.98C123.293 37.98 124.64 37.7133 125.76 37.18C126.893 36.6333 127.753 35.86 128.34 34.86C128.94 33.8467 129.22 32.64 129.18 31.24C129.167 30.3333 129.14 29.5667 129.1 28.94C129.073 28.3133 129.047 27.7333 129.02 27.2ZM137.019 38.36C137.019 38.0133 137.239 37.78 137.679 37.66L139.099 37.4C139.406 37.3333 139.639 37.22 139.799 37.06C139.959 36.9 140.039 36.6867 140.039 36.42V13.6C140.039 13.32 139.959 13.1 139.799 12.94C139.639 12.78 139.406 12.6667 139.099 12.6L137.679 12.34C137.239 12.22 137.019 11.9867 137.019 11.64C137.019 11.4267 137.086 11.2667 137.219 11.16C137.366 11.0533 137.579 11 137.859 11H147.459C149.952 11 152.212 11.36 154.239 12.08C156.266 12.8 158.006 13.8267 159.459 15.16C160.926 16.48 162.046 18.0467 162.819 19.86C163.606 21.6733 163.999 23.6733 163.999 25.86C163.999 28.42 163.412 30.6867 162.239 32.66C161.079 34.6333 159.406 36.1867 157.219 37.32C155.032 38.44 152.406 39 149.339 39H137.859C137.566 39 137.352 38.9467 137.219 38.84C137.086 38.72 137.019 38.56 137.019 38.36ZM149.079 37.58C151.146 37.58 152.932 37.1333 154.439 36.24C155.959 35.3333 157.132 34 157.959 32.24C158.799 30.4667 159.219 28.28 159.219 25.68C159.219 23.64 158.932 21.8067 158.359 20.18C157.799 18.5533 156.986 17.1667 155.919 16.02C154.866 14.86 153.586 13.9733 152.079 13.36C150.586 12.7333 148.899 12.42 147.019 12.42H144.619V36.04C144.619 36.5733 144.779 36.9667 145.099 37.22C145.419 37.46 145.899 37.58 146.539 37.58H149.079ZM175.38 36.42C175.38 36.6867 175.46 36.9 175.62 37.06C175.793 37.22 176.027 37.34 176.32 37.42L177.72 37.66C178.173 37.78 178.4 38.0133 178.4 38.36C178.4 38.56 178.333 38.72 178.2 38.84C178.067 38.9467 177.847 39 177.54 39H168.62C168.327 39 168.113 38.9467 167.98 38.84C167.847 38.72 167.78 38.56 167.78 38.36C167.78 38.0133 168 37.78 168.44 37.66L169.84 37.42C170.16 37.34 170.4 37.22 170.56 37.06C170.72 36.9 170.8 36.6867 170.8 36.42V13.58C170.8 13.3133 170.72 13.1 170.56 12.94C170.4 12.78 170.16 12.66 169.84 12.58L168.44 12.34C168 12.22 167.78 11.9867 167.78 11.64C167.78 11.44 167.847 11.2867 167.98 11.18C168.113 11.06 168.327 11 168.62 11H177.54C177.847 11 178.067 11.06 178.2 11.18C178.333 11.2867 178.4 11.44 178.4 11.64C178.4 11.9867 178.173 12.22 177.72 12.34L176.32 12.58C176.027 12.66 175.793 12.78 175.62 12.94C175.46 13.1 175.38 13.3133 175.38 13.58V36.42ZM196.144 10.38C198.237 10.38 200.137 10.7467 201.844 11.48C203.564 12.2 205.044 13.22 206.284 14.54C207.524 15.86 208.477 17.42 209.144 19.22C209.811 21.02 210.144 23 210.144 25.16C210.144 27.28 209.811 29.2267 209.144 31C208.477 32.7733 207.524 34.3067 206.284 35.6C205.057 36.8933 203.584 37.9 201.864 38.62C200.157 39.3267 198.257 39.68 196.164 39.68C194.097 39.68 192.211 39.32 190.504 38.6C188.797 37.8667 187.324 36.84 186.084 35.52C184.844 34.1867 183.891 32.62 183.224 30.82C182.557 29.02 182.224 27.0333 182.224 24.86C182.224 22.74 182.557 20.8 183.224 19.04C183.891 17.2667 184.837 15.7333 186.064 14.44C187.304 13.1467 188.777 12.1467 190.484 11.44C192.191 10.7333 194.077 10.38 196.144 10.38ZM205.444 27.8C205.444 26.0267 205.271 24.3467 204.924 22.76C204.577 21.16 204.084 19.7067 203.444 18.4C202.817 17.08 202.071 15.94 201.204 14.98C200.351 14.0067 199.404 13.26 198.364 12.74C197.324 12.2067 196.224 11.94 195.064 11.94C193.464 11.94 192.051 12.3533 190.824 13.18C189.611 13.9933 188.664 15.1667 187.984 16.7C187.317 18.2333 186.984 20.0733 186.984 22.22C186.984 24.0067 187.151 25.7 187.484 27.3C187.831 28.9 188.317 30.36 188.944 31.68C189.584 33 190.331 34.1467 191.184 35.12C192.051 36.08 192.997 36.8267 194.024 37.36C195.064 37.88 196.157 38.14 197.304 38.14C198.931 38.14 200.351 37.7333 201.564 36.92C202.791 36.0933 203.744 34.9133 204.424 33.38C205.104 31.8333 205.444 29.9733 205.444 27.8Z" fill="#E2DA1E"/>
</svg>
