<svg width="675" height="450" viewBox="0 0 675 450" fill="none" xmlns="http://www.w3.org/2000/svg">
<path fill-rule="evenodd" clip-rule="evenodd" d="M426.128 41.8082C482.266 45.8965 520.056 91.1014 561.694 127.262C606.724 166.367 665.795 198.983 673.479 256.617C681.761 318.744 656.024 389.229 601.21 423.678C550.421 455.598 486.269 420.693 426.128 412.071C380.337 405.506 334.223 406.037 296.787 380.033C251.917 348.866 207.832 309.313 202.329 256.617C196.449 200.31 226.349 146.014 268.158 105.884C310.094 65.6339 366.82 37.489 426.128 41.8082Z" fill="#568F48" fill-opacity="0.72"/>
<path fill-rule="evenodd" clip-rule="evenodd" d="M335.681 119.513C376.368 153.65 419.087 201.47 415.039 250.046C411.09 297.432 352.586 306.175 317.809 333.989C286.5 359.03 267.339 403.729 224.435 402.489C179.554 401.191 138.752 364.764 106.569 327.882C75.2613 292.004 50.282 248.402 51.6833 204.517C53.023 162.563 82.3269 132.813 113.546 109.39C141.839 88.1617 176.953 80.3635 214.855 82.0908C256.964 84.0098 300.679 90.146 335.681 119.513Z" fill="#488F4B" fill-opacity="0.8"/>
<path d="M203.914 169.031H205.812L193.868 194.186V207H191.97V194.186L203.914 169.031ZM200.117 169.031H202.016L190.071 194.186V207H188.173V194.186L200.117 169.031ZM196.32 169.031H198.219L186.274 194.186V207H184.376V194.186L196.32 169.031ZM192.523 169.031H194.422L182.478 194.186V207H180.579V194.186L167.844 169.031H169.742L181.502 192.261L192.523 169.031ZM171.667 169.031H173.565L182.979 186.935L182.029 189.018L171.667 169.031ZM175.464 169.031H177.389L184.877 182.769L183.901 184.852L175.464 169.031ZM179.313 169.031H181.212L186.775 178.629L185.826 180.712L179.313 169.031ZM223.558 182.663C222.081 184.14 221.343 185.924 221.343 188.016C221.343 190.107 222.081 191.9 223.558 193.395C225.052 194.871 226.845 195.609 228.937 195.609C231.028 195.609 232.812 194.871 234.289 193.395C235.783 191.9 236.53 190.107 236.53 188.016C236.53 185.924 235.783 184.14 234.289 182.663C232.812 181.169 231.028 180.422 228.937 180.422C226.845 180.422 225.052 181.169 223.558 182.663ZM222.213 194.739C220.367 192.876 219.444 190.635 219.444 188.016C219.444 185.396 220.367 183.164 222.213 181.318C224.076 179.455 226.317 178.523 228.937 178.523C231.556 178.523 233.788 179.455 235.634 181.318C237.497 183.164 238.429 185.396 238.429 188.016C238.429 190.635 237.497 192.876 235.634 194.739C233.788 196.585 231.556 197.508 228.937 197.508C226.317 197.508 224.076 196.585 222.213 194.739ZM220.868 179.974C218.653 182.206 217.546 184.887 217.546 188.016C217.546 191.145 218.653 193.825 220.868 196.058C223.101 198.29 225.79 199.406 228.937 199.406C232.083 199.406 234.764 198.29 236.979 196.058C239.211 193.825 240.327 191.145 240.327 188.016C240.327 184.887 239.211 182.206 236.979 179.974C234.764 177.741 232.083 176.625 228.937 176.625C225.79 176.625 223.101 177.741 220.868 179.974ZM217.414 194.687C216.236 192.647 215.647 190.424 215.647 188.016C215.647 185.607 216.236 183.384 217.414 181.345C218.609 179.306 220.227 177.697 222.266 176.52C224.305 175.324 226.528 174.727 228.937 174.727C231.345 174.727 233.568 175.324 235.607 176.52C237.646 177.697 239.255 179.306 240.433 181.345C241.628 183.384 242.226 185.607 242.226 188.016C242.226 190.424 241.628 192.647 240.433 194.687C239.255 196.726 237.646 198.343 235.607 199.538C233.568 200.716 231.345 201.305 228.937 201.305C226.528 201.305 224.305 200.716 222.266 199.538C220.227 198.343 218.609 196.726 217.414 194.687ZM214.936 182.136C214.145 183.999 213.749 185.959 213.749 188.016C213.749 190.072 214.145 192.041 214.936 193.922C215.744 195.785 216.825 197.402 218.179 198.773C219.55 200.127 221.167 201.208 223.03 202.017C224.911 202.808 226.88 203.203 228.937 203.203C230.993 203.203 232.953 202.808 234.816 202.017C236.697 201.208 238.314 200.127 239.668 198.773C241.039 197.402 242.12 195.785 242.911 193.922C243.72 192.041 244.124 190.072 244.124 188.016C244.124 185.959 243.72 183.999 242.911 182.136C242.12 180.255 241.039 178.638 239.668 177.284C238.314 175.913 236.697 174.832 234.816 174.041C232.953 173.232 230.993 172.828 228.937 172.828C226.88 172.828 224.911 173.232 223.03 174.041C221.167 174.832 219.55 175.913 218.179 177.284C216.825 178.638 215.744 180.255 214.936 182.136ZM213.195 194.66C212.299 192.551 211.851 190.336 211.851 188.016C211.851 185.695 212.299 183.48 213.195 181.371C214.109 179.262 215.322 177.451 216.834 175.939C218.363 174.41 220.183 173.197 222.292 172.301C224.401 171.387 226.616 170.93 228.937 170.93C231.257 170.93 233.472 171.387 235.581 172.301C237.69 173.197 239.501 174.41 241.013 175.939C242.542 177.451 243.755 179.262 244.651 181.371C245.565 183.48 246.022 185.695 246.022 188.016C246.022 190.336 245.565 192.551 244.651 194.66C243.755 196.77 242.542 198.589 241.013 200.118C239.501 201.63 237.69 202.843 235.581 203.757C233.472 204.653 231.257 205.102 228.937 205.102C226.616 205.102 224.401 204.653 222.292 203.757C220.183 202.843 218.363 201.63 216.834 200.118C215.322 198.589 214.109 196.77 213.195 194.66ZM211.455 180.659C210.453 182.997 209.952 185.449 209.952 188.016C209.952 190.582 210.453 193.043 211.455 195.398C212.457 197.736 213.802 199.758 215.489 201.463C217.194 203.15 219.216 204.495 221.554 205.497C223.909 206.499 226.37 207 228.937 207C231.503 207 233.955 206.499 236.293 205.497C238.648 204.495 240.67 203.15 242.357 201.463C244.062 199.758 245.416 197.736 246.418 195.398C247.42 193.043 247.921 190.582 247.921 188.016C247.921 185.449 247.42 182.997 246.418 180.659C245.416 178.304 244.062 176.282 242.357 174.595C240.67 172.89 238.648 171.536 236.293 170.534C233.955 169.532 231.503 169.031 228.937 169.031C226.37 169.031 223.909 169.532 221.554 170.534C219.216 171.536 217.194 172.89 215.489 174.595C213.802 176.282 212.457 178.304 211.455 180.659ZM209.715 196.137C208.607 193.553 208.054 190.846 208.054 188.016C208.054 185.186 208.607 182.487 209.715 179.921C210.822 177.337 212.308 175.113 214.171 173.25C216.034 171.387 218.249 169.901 220.815 168.794C223.399 167.687 226.106 167.133 228.937 167.133C231.767 167.133 234.465 167.687 237.031 168.794C239.615 169.901 241.839 171.387 243.702 173.25C245.565 175.113 247.051 177.337 248.158 179.921C249.266 182.487 249.819 185.186 249.819 188.016C249.819 190.846 249.266 193.553 248.158 196.137C247.051 198.703 245.565 200.918 243.702 202.781C241.839 204.645 239.615 206.13 237.031 207.237C234.465 208.345 231.767 208.898 228.937 208.898C226.106 208.898 223.399 208.345 220.815 207.237C218.249 206.13 216.034 204.645 214.171 202.781C212.308 200.918 210.822 198.703 209.715 196.137ZM272.548 182.663C271.071 184.14 270.333 185.924 270.333 188.016C270.333 190.107 271.071 191.9 272.548 193.395C274.042 194.871 275.835 195.609 277.927 195.609C280.019 195.609 281.803 194.871 283.279 193.395C284.773 191.9 285.521 190.107 285.521 188.016C285.521 185.924 284.773 184.14 283.279 182.663C281.803 181.169 280.019 180.422 277.927 180.422C275.835 180.422 274.042 181.169 272.548 182.663ZM271.203 194.739C269.357 192.876 268.435 190.635 268.435 188.016C268.435 185.396 269.357 183.164 271.203 181.318C273.066 179.455 275.308 178.523 277.927 178.523C280.546 178.523 282.778 179.455 284.624 181.318C286.487 183.164 287.419 185.396 287.419 188.016C287.419 190.635 286.487 192.876 284.624 194.739C282.778 196.585 280.546 197.508 277.927 197.508C275.308 197.508 273.066 196.585 271.203 194.739ZM269.858 179.974C267.644 182.206 266.536 184.887 266.536 188.016C266.536 191.145 267.644 193.825 269.858 196.058C272.091 198.29 274.78 199.406 277.927 199.406C281.073 199.406 283.754 198.29 285.969 196.058C288.201 193.825 289.317 191.145 289.317 188.016C289.317 184.887 288.201 182.206 285.969 179.974C283.754 177.741 281.073 176.625 277.927 176.625C274.78 176.625 272.091 177.741 269.858 179.974ZM266.404 194.687C265.227 192.647 264.638 190.424 264.638 188.016C264.638 185.607 265.227 183.384 266.404 181.345C267.6 179.306 269.217 177.697 271.256 176.52C273.295 175.324 275.519 174.727 277.927 174.727C280.335 174.727 282.559 175.324 284.598 176.52C286.637 177.697 288.245 179.306 289.423 181.345C290.618 183.384 291.216 185.607 291.216 188.016C291.216 190.424 290.618 192.647 289.423 194.687C288.245 196.726 286.637 198.343 284.598 199.538C282.559 200.716 280.335 201.305 277.927 201.305C275.519 201.305 273.295 200.716 271.256 199.538C269.217 198.343 267.6 196.726 266.404 194.687ZM263.926 182.136C263.135 183.999 262.739 185.959 262.739 188.016C262.739 190.072 263.135 192.041 263.926 193.922C264.734 195.785 265.815 197.402 267.169 198.773C268.54 200.127 270.157 201.208 272.021 202.017C273.901 202.808 275.87 203.203 277.927 203.203C279.983 203.203 281.943 202.808 283.807 202.017C285.688 201.208 287.305 200.127 288.658 198.773C290.029 197.402 291.11 195.785 291.901 193.922C292.71 192.041 293.114 190.072 293.114 188.016C293.114 185.959 292.71 183.999 291.901 182.136C291.11 180.255 290.029 178.638 288.658 177.284C287.305 175.913 285.688 174.832 283.807 174.041C281.943 173.232 279.983 172.828 277.927 172.828C275.87 172.828 273.901 173.232 272.021 174.041C270.157 174.832 268.54 175.913 267.169 177.284C265.815 178.638 264.734 180.255 263.926 182.136ZM262.186 194.66C261.289 192.551 260.841 190.336 260.841 188.016C260.841 185.695 261.289 183.48 262.186 181.371C263.1 179.262 264.312 177.451 265.824 175.939C267.354 174.41 269.173 173.197 271.282 172.301C273.392 171.387 275.606 170.93 277.927 170.93C280.247 170.93 282.462 171.387 284.571 172.301C286.681 173.197 288.491 174.41 290.003 175.939C291.532 177.451 292.745 179.262 293.642 181.371C294.556 183.48 295.013 185.695 295.013 188.016C295.013 190.336 294.556 192.551 293.642 194.66C292.745 196.77 291.532 198.589 290.003 200.118C288.491 201.63 286.681 202.843 284.571 203.757C282.462 204.653 280.247 205.102 277.927 205.102C275.606 205.102 273.392 204.653 271.282 203.757C269.173 202.843 267.354 201.63 265.824 200.118C264.312 198.589 263.1 196.77 262.186 194.66ZM260.445 180.659C259.443 182.997 258.942 185.449 258.942 188.016C258.942 190.582 259.443 193.043 260.445 195.398C261.447 197.736 262.792 199.758 264.479 201.463C266.185 203.15 268.206 204.495 270.544 205.497C272.899 206.499 275.36 207 277.927 207C280.493 207 282.945 206.499 285.283 205.497C287.639 204.495 289.66 203.15 291.348 201.463C293.053 199.758 294.406 197.736 295.408 195.398C296.41 193.043 296.911 190.582 296.911 188.016C296.911 185.449 296.41 182.997 295.408 180.659C294.406 178.304 293.053 176.282 291.348 174.595C289.66 172.89 287.639 171.536 285.283 170.534C282.945 169.532 280.493 169.031 277.927 169.031C275.36 169.031 272.899 169.532 270.544 170.534C268.206 171.536 266.185 172.89 264.479 174.595C262.792 176.282 261.447 178.304 260.445 180.659ZM258.705 196.137C257.598 193.553 257.044 190.846 257.044 188.016C257.044 185.186 257.598 182.487 258.705 179.921C259.812 177.337 261.298 175.113 263.161 173.25C265.024 171.387 267.239 169.901 269.806 168.794C272.39 167.687 275.097 167.133 277.927 167.133C280.757 167.133 283.455 167.687 286.021 168.794C288.605 169.901 290.829 171.387 292.692 173.25C294.556 175.113 296.041 177.337 297.148 179.921C298.256 182.487 298.81 185.186 298.81 188.016C298.81 190.846 298.256 193.553 297.148 196.137C296.041 198.703 294.556 200.918 292.692 202.781C290.829 204.645 288.605 206.13 286.021 207.237C283.455 208.345 280.757 208.898 277.927 208.898C275.097 208.898 272.39 208.345 269.806 207.237C267.239 206.13 265.024 204.645 263.161 202.781C261.298 200.918 259.812 198.703 258.705 196.137ZM342.975 169.031L332.401 188.174L342.816 207H340.707L330.292 188.174L340.865 169.031H342.975ZM338.729 169.031L328.156 188.174L338.571 207H336.462L326.047 188.174L336.62 169.031H338.729ZM334.484 169.031L323.911 188.174L334.326 207H332.217L321.802 188.174L332.375 169.031H334.484ZM330.239 169.031L319.64 188.174L330.081 207H327.972L317.53 188.174L328.13 169.031H330.239ZM314.472 169.031V207H316.37V169.031H314.472ZM310.675 169.031V207H312.573V169.031H310.675ZM306.878 169.031V207H308.776V169.031H306.878ZM303.081 169.031V207H304.979V169.031H303.081Z" fill="white"/>
<path d="M333.073 283.015V268.953C333.073 268.953 336.321 268.953 342.815 268.953C344.621 268.953 346.168 269.636 347.453 271.004C348.755 272.371 349.406 274.015 349.406 275.935C349.406 277.921 348.764 279.597 347.478 280.965C346.192 282.332 344.638 283.015 342.815 283.015H333.073ZM334.831 281.258H342.815C344.133 281.258 345.256 280.745 346.184 279.719C347.128 278.694 347.6 277.433 347.6 275.935C347.6 274.503 347.128 273.274 346.184 272.249C345.256 271.223 344.133 270.711 342.815 270.711H334.831V281.258ZM331.316 284.773H342.815C345.126 284.773 347.103 283.919 348.747 282.21C350.391 280.484 351.213 278.393 351.213 275.935C351.213 273.526 350.383 271.468 348.723 269.759C347.079 268.05 345.11 267.195 342.815 267.195H331.316V284.773ZM329.558 286.531V265.437H342.815C345.598 265.437 347.99 266.471 349.992 268.538C352.011 270.589 353.02 273.054 353.02 275.935C353.02 278.881 352.019 281.388 350.017 283.455C348.015 285.506 345.614 286.531 342.815 286.531H329.558ZM327.8 288.289H342.815C344.963 288.289 346.957 287.744 348.796 286.653C350.635 285.563 352.1 284.065 353.191 282.161C354.281 280.257 354.826 278.181 354.826 275.935C354.826 273.738 354.281 271.695 353.191 269.807C352.1 267.919 350.627 266.43 348.772 265.34C346.933 264.233 344.947 263.679 342.815 263.679H327.8V288.289ZM326.042 290.047V261.922H342.815C345.272 261.922 347.559 262.548 349.675 263.802C351.807 265.055 353.5 266.764 354.753 268.928C356.006 271.077 356.633 273.413 356.633 275.935C356.633 278.491 356.006 280.859 354.753 283.04C353.5 285.205 351.807 286.914 349.675 288.167C347.559 289.42 345.272 290.047 342.815 290.047H326.042ZM324.284 291.804H342.815C345.598 291.804 348.186 291.105 350.578 289.705C352.971 288.289 354.875 286.36 356.291 283.919C357.724 281.477 358.44 278.816 358.44 275.935C358.44 273.103 357.724 270.475 356.291 268.05C354.875 265.608 352.963 263.688 350.554 262.288C348.161 260.872 345.582 260.164 342.815 260.164H324.284V291.804ZM342.815 293.562H322.527V258.406H342.815C345.907 258.406 348.788 259.195 351.457 260.774C354.143 262.337 356.275 264.469 357.854 267.171C359.449 269.856 360.246 272.778 360.246 275.935C360.246 278.328 359.774 280.615 358.83 282.796C357.903 284.977 356.649 286.857 355.071 288.435C353.508 289.998 351.653 291.243 349.504 292.171C347.356 293.098 345.126 293.562 342.815 293.562ZM372.966 293.562H371.208V258.406H372.966V293.562ZM369.45 293.562H367.693V258.406H369.45V293.562ZM365.935 293.562H364.177V258.406H365.935V293.562ZM376.482 284.773H393.303V286.531H376.482V288.289H393.303V290.047H376.482V291.804H393.303V293.562H374.724V258.406H393.303V260.164H376.482V261.922H393.303V263.679H376.482V265.437H393.303V267.195H376.482V271.565H392.326V273.323H376.482V275.081H392.326V276.839H376.482V278.596H392.326V280.354H376.482V284.773ZM413.689 276.839H410.906C407.488 276.839 404.859 276.147 403.02 274.763C401.181 273.364 400.261 271.443 400.261 269.002C400.261 266.723 401.343 264.827 403.508 263.313C405.673 261.783 408.708 261.018 412.615 261.018C415.219 261.018 417.644 261.376 419.89 262.093C422.152 262.809 424.032 263.818 425.53 265.12L424.162 266.219C422.828 265.128 421.151 264.282 419.133 263.679C417.115 263.077 414.942 262.776 412.615 262.776C409.18 262.776 406.552 263.362 404.729 264.534C402.922 265.706 402.019 267.195 402.019 269.002C402.019 270.955 402.759 272.46 404.24 273.518C405.738 274.56 407.96 275.081 410.906 275.081H413.591C417.058 275.081 419.711 275.781 421.55 277.18C423.406 278.564 424.333 280.476 424.333 282.918C424.333 285.196 423.251 287.101 421.086 288.631C418.921 290.144 415.886 290.901 411.98 290.901C409.376 290.901 406.942 290.543 404.68 289.827C402.434 289.111 400.562 288.102 399.065 286.8L400.432 285.701C401.767 286.791 403.443 287.638 405.461 288.24C407.479 288.842 409.652 289.143 411.98 289.143C415.414 289.143 418.034 288.557 419.841 287.386C421.664 286.214 422.575 284.724 422.575 282.918C422.575 280.965 421.827 279.467 420.329 278.426C418.848 277.368 416.635 276.839 413.689 276.839ZM413.689 280.354H410.906C406.381 280.354 402.89 279.329 400.432 277.278C397.974 275.211 396.745 272.452 396.745 269.002C396.745 267.423 397.095 265.942 397.795 264.558C398.495 263.175 399.496 261.962 400.798 260.921C402.116 259.863 403.793 259.033 405.827 258.43C407.862 257.812 410.124 257.503 412.615 257.503C415.756 257.503 418.694 257.983 421.428 258.943C424.162 259.887 426.441 261.214 428.264 262.923L426.848 263.972C425.188 262.475 423.113 261.319 420.622 260.506C418.132 259.676 415.463 259.261 412.615 259.261C408.22 259.261 404.769 260.188 402.263 262.044C399.756 263.899 398.503 266.219 398.503 269.002C398.503 271.948 399.577 274.283 401.726 276.009C403.874 277.734 406.934 278.596 410.906 278.596H413.591C418.409 278.596 420.818 280.037 420.818 282.918C420.818 284.22 420.077 285.294 418.596 286.14C417.131 286.97 414.926 287.386 411.98 287.386C409.913 287.386 407.992 287.15 406.218 286.678C404.444 286.189 402.979 285.497 401.823 284.602L403.215 283.528C405.25 284.928 408.171 285.628 411.98 285.628C414.421 285.628 416.212 285.375 417.351 284.871C418.49 284.366 419.06 283.715 419.06 282.918C419.06 281.99 418.661 281.331 417.864 280.94C417.066 280.55 415.674 280.354 413.689 280.354ZM413.689 273.323H410.906C406.153 273.323 403.777 271.883 403.777 269.002C403.777 267.7 404.509 266.634 405.974 265.803C407.455 264.957 409.669 264.534 412.615 264.534C414.682 264.534 416.602 264.778 418.376 265.266C420.15 265.738 421.615 266.422 422.771 267.317L421.379 268.391C419.345 266.992 416.423 266.292 412.615 266.292C410.173 266.292 408.383 266.544 407.243 267.049C406.104 267.553 405.534 268.204 405.534 269.002C405.534 269.929 405.933 270.589 406.731 270.979C407.528 271.37 408.92 271.565 410.906 271.565H413.689C418.213 271.565 421.705 272.599 424.162 274.666C426.62 276.717 427.849 279.467 427.849 282.918C427.849 284.497 427.499 285.978 426.799 287.361C426.099 288.745 425.09 289.965 423.772 291.023C422.47 292.065 420.801 292.895 418.767 293.513C416.732 294.116 414.47 294.417 411.98 294.417C408.838 294.417 405.901 293.945 403.166 293.001C400.432 292.04 398.153 290.706 396.33 288.997L397.746 287.947C399.406 289.444 401.482 290.608 403.972 291.438C406.462 292.252 409.131 292.659 411.98 292.659C416.374 292.659 419.825 291.731 422.331 289.876C424.838 288.02 426.091 285.701 426.091 282.918C426.091 279.972 425.017 277.636 422.868 275.911C420.72 274.186 417.66 273.323 413.689 273.323ZM442.253 258.406H444.011V293.562H442.253V258.406ZM438.738 258.406H440.495V293.562H438.738V258.406ZM435.222 258.406H436.98V293.562H435.222V258.406ZM431.706 258.406H433.464V293.562H431.706V258.406ZM473.332 275.74H475.09V293.562C472.486 294.734 469.792 295.32 467.009 295.32C464.389 295.32 461.882 294.807 459.49 293.782C457.113 292.757 455.062 291.381 453.337 289.656C451.612 287.931 450.237 285.88 449.211 283.504C448.186 281.111 447.673 278.605 447.673 275.984C447.673 273.364 448.186 270.865 449.211 268.489C450.237 266.096 451.612 264.038 453.337 262.312C455.062 260.587 457.113 259.212 459.49 258.186C461.882 257.161 464.389 256.648 467.009 256.648C470.004 256.648 472.82 257.299 475.456 258.601C478.093 259.887 480.315 261.661 482.121 263.924L480.705 264.973C479.061 262.939 477.043 261.336 474.651 260.164C472.274 258.992 469.727 258.406 467.009 258.406C464.633 258.406 462.354 258.87 460.173 259.798C458.008 260.725 456.137 261.979 454.558 263.557C452.995 265.12 451.75 266.992 450.823 269.173C449.895 271.337 449.431 273.608 449.431 275.984C449.431 278.36 449.895 280.639 450.823 282.82C451.75 284.985 452.995 286.857 454.558 288.435C456.137 289.998 458.008 291.243 460.173 292.171C462.354 293.098 464.633 293.562 467.009 293.562C469.206 293.562 471.314 293.172 473.332 292.39V290.584C471.298 291.398 469.19 291.804 467.009 291.804C464.861 291.804 462.81 291.389 460.857 290.559C458.904 289.713 457.219 288.59 455.803 287.19C454.403 285.774 453.28 284.09 452.434 282.136C451.604 280.183 451.189 278.133 451.189 275.984C451.189 273.836 451.604 271.785 452.434 269.832C453.28 267.879 454.403 266.202 455.803 264.803C457.219 263.386 458.904 262.263 460.857 261.433C462.81 260.587 464.861 260.164 467.009 260.164C469.467 260.164 471.77 260.693 473.918 261.751C476.083 262.809 477.906 264.265 479.387 266.121L478.02 267.219C476.701 265.576 475.082 264.282 473.161 263.338C471.241 262.394 469.19 261.922 467.009 261.922C465.105 261.922 463.282 262.296 461.54 263.045C459.815 263.777 458.318 264.778 457.048 266.048C455.795 267.301 454.794 268.798 454.045 270.54C453.313 272.265 452.947 274.08 452.947 275.984C452.947 277.888 453.313 279.711 454.045 281.453C454.794 283.178 455.795 284.676 457.048 285.945C458.318 287.198 459.815 288.199 461.54 288.948C463.282 289.68 465.105 290.047 467.009 290.047C469.255 290.047 471.363 289.591 473.332 288.679V286.873C471.363 287.817 469.255 288.289 467.009 288.289C464.779 288.289 462.72 287.744 460.832 286.653C458.944 285.546 457.447 284.049 456.34 282.161C455.25 280.273 454.704 278.214 454.704 275.984C454.704 273.754 455.25 271.695 456.34 269.807C457.447 267.919 458.944 266.43 460.832 265.34C462.72 264.233 464.779 263.679 467.009 263.679C468.913 263.679 470.704 264.094 472.38 264.925C474.073 265.738 475.489 266.87 476.628 268.318L475.237 269.392C474.26 268.155 473.047 267.187 471.599 266.487C470.167 265.787 468.637 265.437 467.009 265.437C464.096 265.437 461.605 266.471 459.538 268.538C457.488 270.605 456.462 273.087 456.462 275.984C456.462 278.881 457.488 281.363 459.538 283.43C461.605 285.497 464.096 286.531 467.009 286.531C469.288 286.531 471.395 285.978 473.332 284.871V283.089C471.428 284.212 469.32 284.773 467.009 284.773C464.584 284.773 462.509 283.919 460.783 282.21C459.074 280.484 458.22 278.409 458.22 275.984C458.22 273.559 459.074 271.492 460.783 269.783C462.509 268.058 464.584 267.195 467.009 267.195C468.376 267.195 469.662 267.496 470.866 268.098C472.071 268.684 473.08 269.49 473.894 270.515L472.478 271.59C471.062 269.832 469.239 268.953 467.009 268.953C465.072 268.953 463.412 269.645 462.029 271.028C460.661 272.395 459.978 274.047 459.978 275.984C459.978 277.921 460.661 279.581 462.029 280.965C463.412 282.332 465.072 283.015 467.009 283.015C469.499 283.015 471.607 282.324 473.332 280.94V275.74ZM483.879 275.74H485.637V293.562H483.879V275.74ZM480.364 275.74H482.121V293.562H480.364V275.74ZM476.848 275.74H478.606V293.562H476.848V275.74ZM517.693 279.378L515.935 276.179V258.406H517.693V279.378ZM521.208 285.457L519.45 282.478V258.406H521.208V285.457ZM496.99 272.591L498.747 275.789V293.562H496.99V272.591ZM493.474 266.267L495.232 269.49V293.562H493.474V266.267ZM494.084 258.406H496.135L516.496 293.562H514.446L494.084 258.406ZM498.235 258.406H500.31L520.647 293.562H518.547L498.235 258.406ZM502.361 258.406H504.411L522.966 290.511V258.406H524.724V293.562H522.649L502.361 258.406ZM491.716 261.433V293.562H489.958V258.406H492.058L512.346 293.562H510.32L491.716 261.433Z" fill="white"/>
<path d="M246.534 143.244H505.205C507.967 143.244 510.205 145.483 510.205 148.244V248.113" stroke="white"/>
<path d="M246.534 230.136V285.061C246.534 287.822 248.773 290.061 251.534 290.061H310.954" stroke="white"/>
</svg>
