<svg width="281" height="30" viewBox="0 0 281 30" fill="none" xmlns="http://www.w3.org/2000/svg">
<path d="M15.623 19.74L12.003 20.48L3.34297 3.62C3.1563 3.24667 2.9763 2.98667 2.80297 2.84C2.62964 2.69333 2.40297 2.58 2.12297 2.5L1.40297 2.32C1.1363 2.24 0.949635 2.14667 0.842969 2.04C0.749635 1.92 0.702969 1.78666 0.702969 1.64C0.702969 1.42667 0.776302 1.26667 0.922969 1.16C1.06964 1.05333 1.2963 0.999998 1.60297 0.999998H10.283C10.5896 0.999998 10.823 1.05333 10.983 1.16C11.1563 1.26667 11.243 1.42667 11.243 1.64C11.243 1.98667 10.963 2.22 10.403 2.34L9.14297 2.54C8.64964 2.63333 8.34964 2.77333 8.24297 2.96C8.1363 3.14666 8.1763 3.43333 8.36297 3.82L15.523 18.34L14.123 19.16L21.303 4.82C21.5963 4.23333 21.663 3.74667 21.503 3.36C21.3563 2.96 20.9496 2.68 20.283 2.52L19.043 2.32C18.843 2.26667 18.683 2.18667 18.563 2.08C18.4563 1.96 18.403 1.81333 18.403 1.64C18.403 1.44 18.4763 1.28667 18.623 1.18C18.783 1.06 19.003 0.999998 19.283 0.999998H25.463C25.7696 0.999998 25.9963 1.06 26.143 1.18C26.2896 1.28667 26.363 1.44 26.363 1.64C26.363 1.8 26.3163 1.93333 26.223 2.04C26.1296 2.13333 25.943 2.22666 25.663 2.32L25.363 2.42C25.0563 2.51333 24.783 2.64667 24.543 2.82C24.303 2.99333 24.0696 3.24667 23.843 3.58C23.6163 3.9 23.363 4.34666 23.083 4.92L15.623 19.74ZM11.403 18.8L15.983 18.76V26.42C15.983 26.6867 16.063 26.9 16.223 27.06C16.3963 27.22 16.6296 27.34 16.923 27.42L18.323 27.66C18.7763 27.78 19.003 28.0133 19.003 28.36C19.003 28.56 18.9363 28.72 18.803 28.84C18.6696 28.9467 18.4563 29 18.163 29H9.24297C8.94964 29 8.72964 28.94 8.58297 28.82C8.44964 28.7 8.38297 28.5467 8.38297 28.36C8.38297 28.0133 8.60964 27.78 9.06297 27.66L10.463 27.42C10.7696 27.34 11.003 27.22 11.163 27.06C11.323 26.9 11.403 26.6867 11.403 26.42V18.8ZM41.6205 0.379998C43.7138 0.379998 45.6138 0.746665 47.3205 1.48C49.0405 2.2 50.5205 3.22 51.7605 4.54C53.0005 5.86 53.9538 7.42 54.6205 9.22C55.2871 11.02 55.6205 13 55.6205 15.16C55.6205 17.28 55.2871 19.2267 54.6205 21C53.9538 22.7733 53.0005 24.3067 51.7605 25.6C50.5338 26.8933 49.0605 27.9 47.3405 28.62C45.6338 29.3267 43.7338 29.68 41.6405 29.68C39.5738 29.68 37.6871 29.32 35.9805 28.6C34.2738 27.8667 32.8005 26.84 31.5605 25.52C30.3205 24.1867 29.3671 22.62 28.7005 20.82C28.0338 19.02 27.7005 17.0333 27.7005 14.86C27.7005 12.74 28.0338 10.8 28.7005 9.04C29.3671 7.26667 30.3138 5.73333 31.5405 4.44C32.7805 3.14667 34.2538 2.14667 35.9605 1.44C37.6671 0.733332 39.5538 0.379998 41.6205 0.379998ZM50.9205 17.8C50.9205 16.0267 50.7471 14.3467 50.4005 12.76C50.0538 11.16 49.5605 9.70667 48.9205 8.4C48.2938 7.08 47.5471 5.94 46.6805 4.98C45.8271 4.00667 44.8805 3.26 43.8405 2.74C42.8005 2.20667 41.7005 1.94 40.5405 1.94C38.9405 1.94 37.5271 2.35333 36.3005 3.18C35.0871 3.99333 34.1405 5.16667 33.4605 6.7C32.7938 8.23333 32.4605 10.0733 32.4605 12.22C32.4605 14.0067 32.6271 15.7 32.9605 17.3C33.3071 18.9 33.7938 20.36 34.4205 21.68C35.0605 23 35.8071 24.1467 36.6605 25.12C37.5271 26.08 38.4738 26.8267 39.5005 27.36C40.5405 27.88 41.6338 28.14 42.7805 28.14C44.4071 28.14 45.8271 27.7333 47.0405 26.92C48.2671 26.0933 49.2205 24.9133 49.9005 23.38C50.5805 21.8333 50.9205 19.9733 50.9205 17.8ZM72.9877 0.379998C75.081 0.379998 76.981 0.746665 78.6877 1.48C80.4077 2.2 81.8877 3.22 83.1277 4.54C84.3677 5.86 85.321 7.42 85.9877 9.22C86.6543 11.02 86.9877 13 86.9877 15.16C86.9877 17.28 86.6543 19.2267 85.9877 21C85.321 22.7733 84.3677 24.3067 83.1277 25.6C81.901 26.8933 80.4277 27.9 78.7077 28.62C77.001 29.3267 75.101 29.68 73.0077 29.68C70.941 29.68 69.0543 29.32 67.3477 28.6C65.641 27.8667 64.1677 26.84 62.9277 25.52C61.6877 24.1867 60.7343 22.62 60.0677 20.82C59.401 19.02 59.0677 17.0333 59.0677 14.86C59.0677 12.74 59.401 10.8 60.0677 9.04C60.7343 7.26667 61.681 5.73333 62.9077 4.44C64.1477 3.14667 65.621 2.14667 67.3277 1.44C69.0343 0.733332 70.921 0.379998 72.9877 0.379998ZM82.2877 17.8C82.2877 16.0267 82.1143 14.3467 81.7677 12.76C81.421 11.16 80.9277 9.70667 80.2877 8.4C79.661 7.08 78.9143 5.94 78.0477 4.98C77.1943 4.00667 76.2477 3.26 75.2077 2.74C74.1677 2.20667 73.0677 1.94 71.9077 1.94C70.3077 1.94 68.8943 2.35333 67.6677 3.18C66.4543 3.99333 65.5077 5.16667 64.8277 6.7C64.161 8.23333 63.8277 10.0733 63.8277 12.22C63.8277 14.0067 63.9943 15.7 64.3277 17.3C64.6743 18.9 65.161 20.36 65.7877 21.68C66.4277 23 67.1743 24.1467 68.0277 25.12C68.8943 26.08 69.841 26.8267 70.8677 27.36C71.9077 27.88 73.001 28.14 74.1477 28.14C75.7743 28.14 77.1943 27.7333 78.4077 26.92C79.6343 26.0933 80.5877 24.9133 81.2677 23.38C81.9477 21.8333 82.2877 19.9733 82.2877 17.8ZM96.6748 18.58L109.995 4.98C110.395 4.58 110.648 4.22 110.755 3.9C110.862 3.58 110.842 3.30667 110.695 3.08C110.548 2.84 110.282 2.66667 109.895 2.56L108.615 2.32C108.375 2.25333 108.202 2.16666 108.095 2.06C107.988 1.94 107.935 1.8 107.935 1.64C107.935 1.42667 108.008 1.26667 108.155 1.16C108.315 1.05333 108.535 0.999998 108.815 0.999998H116.175C116.482 0.999998 116.702 1.06 116.835 1.18C116.982 1.28667 117.055 1.44 117.055 1.64C117.055 1.81333 116.988 1.95333 116.855 2.06C116.735 2.15333 116.475 2.25333 116.075 2.36C115.822 2.42667 115.575 2.51333 115.335 2.62C115.095 2.71333 114.828 2.86 114.535 3.06C114.255 3.26 113.908 3.54 113.495 3.9C113.095 4.26 112.588 4.72667 111.975 5.3L97.3548 20L96.6748 18.58ZM102.155 13.78L105.675 10.84L115.315 26.12C115.595 26.5733 115.895 26.9067 116.215 27.12C116.548 27.3333 116.962 27.48 117.455 27.56C117.868 27.6667 118.135 27.7867 118.255 27.92C118.388 28.04 118.455 28.1933 118.455 28.38C118.455 28.5667 118.375 28.72 118.215 28.84C118.068 28.9467 117.848 29 117.555 29H108.695C108.388 29 108.162 28.9467 108.015 28.84C107.868 28.72 107.795 28.56 107.795 28.36C107.795 28.1867 107.848 28.04 107.955 27.92C108.062 27.8 108.222 27.72 108.435 27.68L109.835 27.46C110.128 27.3933 110.282 27.26 110.295 27.06C110.322 26.8467 110.222 26.5467 109.995 26.16L102.155 13.78ZM98.4548 26.42C98.4548 26.6867 98.5282 26.9 98.6748 27.06C98.8215 27.22 99.0415 27.34 99.3348 27.42L100.675 27.66C100.928 27.74 101.102 27.8333 101.195 27.94C101.288 28.0467 101.335 28.1867 101.335 28.36C101.335 28.5467 101.268 28.7 101.135 28.82C101.002 28.94 100.788 29 100.495 29H91.6948C91.4148 29 91.2015 28.94 91.0548 28.82C90.9215 28.7 90.8548 28.5467 90.8548 28.36C90.8548 28.0133 91.0748 27.78 91.5148 27.66L92.9148 27.42C93.2348 27.34 93.4748 27.22 93.6348 27.06C93.7948 26.9 93.8748 26.6867 93.8748 26.42V3.58C93.8748 3.31333 93.7948 3.1 93.6348 2.94C93.4748 2.78 93.2348 2.66 92.9148 2.58L91.5148 2.34C91.0748 2.22 90.8548 1.98667 90.8548 1.64C90.8548 1.44 90.9215 1.28667 91.0548 1.18C91.2015 1.06 91.4148 0.999998 91.6948 0.999998H100.615C100.922 0.999998 101.142 1.06 101.275 1.18C101.408 1.28667 101.475 1.44 101.475 1.64C101.475 1.98667 101.248 2.22 100.795 2.34L99.3948 2.58C99.1015 2.66 98.8682 2.78 98.6948 2.94C98.5348 3.1 98.4548 3.31333 98.4548 3.58V26.42ZM129.331 28.36C129.331 28.0133 129.551 27.78 129.991 27.66L131.411 27.4C131.718 27.3333 131.951 27.22 132.111 27.06C132.271 26.9 132.351 26.6867 132.351 26.42V3.6C132.351 3.32 132.271 3.1 132.111 2.94C131.951 2.78 131.718 2.66667 131.411 2.6L129.991 2.34C129.551 2.22 129.331 1.98667 129.331 1.64C129.331 1.42667 129.398 1.26667 129.531 1.16C129.678 1.05333 129.891 0.999998 130.171 0.999998H139.771C142.265 0.999998 144.525 1.36 146.551 2.08C148.578 2.8 150.318 3.82667 151.771 5.16C153.238 6.48 154.358 8.04667 155.131 9.86C155.918 11.6733 156.311 13.6733 156.311 15.86C156.311 18.42 155.725 20.6867 154.551 22.66C153.391 24.6333 151.718 26.1867 149.531 27.32C147.345 28.44 144.718 29 141.651 29H130.171C129.878 29 129.665 28.9467 129.531 28.84C129.398 28.72 129.331 28.56 129.331 28.36ZM141.391 27.58C143.458 27.58 145.245 27.1333 146.751 26.24C148.271 25.3333 149.445 24 150.271 22.24C151.111 20.4667 151.531 18.28 151.531 15.68C151.531 13.64 151.245 11.8067 150.671 10.18C150.111 8.55333 149.298 7.16667 148.231 6.02C147.178 4.86 145.898 3.97333 144.391 3.36C142.898 2.73333 141.211 2.42 139.331 2.42H136.931V26.04C136.931 26.5733 137.091 26.9667 137.411 27.22C137.731 27.46 138.211 27.58 138.851 27.58H141.391ZM166.073 14.26H172.913C173.753 14.26 174.346 14.0933 174.693 13.76C175.039 13.4133 175.273 12.76 175.393 11.8C175.433 11.56 175.506 11.38 175.613 11.26C175.733 11.14 175.886 11.0733 176.073 11.06C176.446 11.0067 176.693 11.22 176.813 11.7L178.373 17.52C178.439 17.7733 178.439 17.9733 178.373 18.12C178.306 18.2667 178.173 18.3733 177.973 18.44C177.786 18.4933 177.606 18.4867 177.433 18.42C177.273 18.3533 177.133 18.2267 177.013 18.04C176.653 17.4 176.319 16.9133 176.013 16.58C175.706 16.2333 175.366 16 174.993 15.88C174.619 15.7467 174.146 15.68 173.573 15.68H166.073V14.26ZM160.113 1.64C160.113 1.44 160.179 1.28667 160.313 1.18C160.459 1.06 160.673 0.999998 160.953 0.999998H176.333C176.733 0.999998 177.066 0.933331 177.333 0.799998C177.599 0.666665 177.846 0.533332 178.073 0.399999C178.299 0.266665 178.546 0.199999 178.813 0.199999C179.079 0.199999 179.286 0.279999 179.433 0.439998C179.579 0.586665 179.706 0.839999 179.813 1.2L181.373 6.94C181.453 7.18 181.453 7.38 181.373 7.54C181.293 7.7 181.146 7.81333 180.933 7.88C180.706 7.94667 180.493 7.93333 180.293 7.84C180.106 7.74667 179.953 7.58 179.833 7.34C179.326 6.28667 178.866 5.44 178.453 4.8C178.039 4.14667 177.619 3.65333 177.193 3.32C176.779 2.97333 176.326 2.74 175.833 2.62C175.353 2.5 174.793 2.44 174.153 2.44H167.713V25.94C167.713 26.4867 167.879 26.8933 168.213 27.16C168.546 27.4267 169.059 27.56 169.753 27.56H174.673C175.526 27.56 176.259 27.4133 176.873 27.12C177.486 26.8267 178.086 26.24 178.673 25.36C179.259 24.48 179.926 23.1733 180.673 21.44C180.766 21.2267 180.893 21.08 181.053 21C181.213 20.9067 181.386 20.88 181.573 20.92C181.813 20.9467 181.979 21.0467 182.073 21.22C182.179 21.38 182.199 21.6 182.133 21.88L180.453 28.68C180.346 29.04 180.213 29.3 180.053 29.46C179.893 29.6333 179.666 29.72 179.373 29.72C179.133 29.72 178.899 29.66 178.673 29.54C178.446 29.42 178.193 29.3 177.913 29.18C177.633 29.06 177.293 29 176.893 29H160.953C160.673 29 160.459 28.94 160.313 28.82C160.179 28.7 160.113 28.5467 160.113 28.36C160.113 28.0133 160.333 27.78 160.773 27.66L162.173 27.42C162.493 27.34 162.733 27.22 162.893 27.06C163.053 26.9 163.133 26.6867 163.133 26.42V3.58C163.133 3.31333 163.053 3.1 162.893 2.94C162.733 2.78 162.493 2.66 162.173 2.58L160.773 2.34C160.333 2.22 160.113 1.98667 160.113 1.64ZM196.262 29.6C195.076 29.6 194.062 29.4467 193.222 29.14C192.382 28.8467 191.702 28.5533 191.182 28.26C190.676 27.9533 190.316 27.8 190.102 27.8C189.889 27.8 189.716 27.8933 189.582 28.08C189.462 28.2533 189.342 28.46 189.222 28.7C189.102 28.94 188.969 29.1533 188.822 29.34C188.689 29.5267 188.516 29.62 188.302 29.62C188.102 29.62 187.936 29.5533 187.802 29.42C187.682 29.3 187.596 29.1067 187.542 28.84L186.042 22.26C185.989 22.0467 186.009 21.86 186.102 21.7C186.196 21.54 186.342 21.4267 186.542 21.36C186.769 21.28 186.969 21.2867 187.142 21.38C187.316 21.46 187.462 21.6267 187.582 21.88C188.316 23.4133 189.136 24.64 190.042 25.56C190.949 26.4667 191.909 27.1267 192.922 27.54C193.936 27.94 194.969 28.14 196.022 28.14C197.516 28.14 198.689 27.7333 199.542 26.92C200.396 26.1067 200.822 25.0267 200.822 23.68C200.836 22.84 200.649 22.0667 200.262 21.36C199.889 20.64 199.189 19.9533 198.162 19.3C197.136 18.6333 195.642 17.9667 193.682 17.3C191.682 16.5933 190.082 15.8133 188.882 14.96C187.682 14.1067 186.809 13.1333 186.262 12.04C185.716 10.9333 185.442 9.68 185.442 8.28C185.442 6.72 185.809 5.36 186.542 4.2C187.289 3.02667 188.316 2.11333 189.622 1.46C190.942 0.806664 192.462 0.479998 194.182 0.479998C195.436 0.479998 196.456 0.619998 197.242 0.899998C198.042 1.18 198.682 1.46667 199.162 1.76C199.642 2.04 200.022 2.18 200.302 2.18C200.582 2.18 200.782 2.04 200.902 1.76C201.036 1.48 201.169 1.19333 201.302 0.899998C201.449 0.606665 201.676 0.459999 201.982 0.459999C202.182 0.459999 202.349 0.526666 202.482 0.659999C202.616 0.793332 202.729 1.02667 202.822 1.36L204.782 8.12C204.862 8.36 204.856 8.58 204.762 8.78C204.682 8.98 204.536 9.11333 204.322 9.18C204.096 9.26 203.896 9.25333 203.722 9.16C203.549 9.06667 203.402 8.90667 203.282 8.68C202.456 7 201.576 5.67333 200.642 4.7C199.709 3.71333 198.729 3.00667 197.702 2.58C196.676 2.15333 195.622 1.94 194.542 1.94C193.009 1.94 191.782 2.38667 190.862 3.28C189.942 4.16 189.482 5.34 189.482 6.82C189.482 7.67333 189.669 8.47333 190.042 9.22C190.429 9.96667 191.122 10.6867 192.122 11.38C193.136 12.06 194.569 12.7467 196.422 13.44C198.502 14.2 200.149 15.0067 201.362 15.86C202.576 16.7133 203.442 17.66 203.962 18.7C204.482 19.7267 204.736 20.8867 204.722 22.18C204.722 23.54 204.389 24.7867 203.722 25.92C203.069 27.04 202.116 27.9333 200.862 28.6C199.609 29.2667 198.076 29.6 196.262 29.6ZM216.521 26.42C216.521 26.6867 216.601 26.9 216.761 27.06C216.934 27.22 217.167 27.34 217.461 27.42L218.861 27.66C219.314 27.78 219.541 28.0133 219.541 28.36C219.541 28.56 219.474 28.72 219.341 28.84C219.207 28.9467 218.987 29 218.681 29H209.761C209.467 29 209.254 28.9467 209.121 28.84C208.987 28.72 208.921 28.56 208.921 28.36C208.921 28.0133 209.141 27.78 209.581 27.66L210.981 27.42C211.301 27.34 211.541 27.22 211.701 27.06C211.861 26.9 211.941 26.6867 211.941 26.42V3.58C211.941 3.31333 211.861 3.1 211.701 2.94C211.541 2.78 211.301 2.66 210.981 2.58L209.581 2.34C209.141 2.22 208.921 1.98667 208.921 1.64C208.921 1.44 208.987 1.28667 209.121 1.18C209.254 1.06 209.467 0.999998 209.761 0.999998H218.681C218.987 0.999998 219.207 1.06 219.341 1.18C219.474 1.28667 219.541 1.44 219.541 1.64C219.541 1.98667 219.314 2.22 218.861 2.34L217.461 2.58C217.167 2.66 216.934 2.78 216.761 2.94C216.601 3.1 216.521 3.31333 216.521 3.58V26.42ZM247.565 28.64C247.565 29.0133 247.498 29.28 247.365 29.44C247.231 29.6 247.025 29.68 246.745 29.68C246.478 29.68 246.238 29.5733 246.025 29.36C245.811 29.16 245.611 28.9267 245.425 28.66C245.238 28.3933 245.051 28.16 244.865 27.96C244.678 27.76 244.478 27.66 244.265 27.66C244.025 27.66 243.718 27.76 243.345 27.96C242.985 28.16 242.525 28.3933 241.965 28.66C241.418 28.9267 240.745 29.16 239.945 29.36C239.158 29.56 238.211 29.66 237.105 29.66C234.985 29.66 233.078 29.3067 231.385 28.6C229.691 27.88 228.245 26.8733 227.045 25.58C225.858 24.2867 224.945 22.7533 224.305 20.98C223.678 19.2067 223.365 17.2533 223.365 15.12C223.365 12.9867 223.705 11.02 224.385 9.22C225.065 7.42 226.018 5.86 227.245 4.54C228.485 3.22 229.938 2.2 231.605 1.48C233.285 0.746665 235.111 0.379998 237.085 0.379998C238.525 0.379998 239.698 0.526665 240.605 0.819999C241.525 1.11333 242.238 1.40667 242.745 1.7C243.265 1.99333 243.645 2.14 243.885 2.14C244.191 2.14 244.425 2.01333 244.585 1.76C244.745 1.50667 244.905 1.25333 245.065 0.999998C245.238 0.746666 245.471 0.619999 245.765 0.619999C245.938 0.619999 246.078 0.673333 246.185 0.78C246.305 0.886665 246.405 1.07333 246.485 1.34L248.505 8.32C248.585 8.54667 248.571 8.75333 248.465 8.94C248.358 9.11333 248.185 9.22 247.945 9.26C247.731 9.3 247.538 9.27333 247.365 9.18C247.191 9.08667 247.051 8.92667 246.945 8.7C246.198 7.04667 245.351 5.72667 244.405 4.74C243.458 3.74 242.405 3.01333 241.245 2.56C240.098 2.10667 238.838 1.88 237.465 1.88C235.651 1.88 234.031 2.38 232.605 3.38C231.178 4.38 230.051 5.8 229.225 7.64C228.411 9.48 228.005 11.66 228.005 14.18C228.005 17.0333 228.458 19.4733 229.365 21.5C230.271 23.5133 231.505 25.0533 233.065 26.12C234.625 27.1867 236.378 27.72 238.325 27.72C239.058 27.72 239.731 27.6533 240.345 27.52C240.971 27.3867 241.505 27.1933 241.945 26.94C242.398 26.6867 242.751 26.3733 243.005 26C243.258 25.6267 243.385 25.2067 243.385 24.74V19.4C243.385 19.0933 243.298 18.8667 243.125 18.72C242.965 18.56 242.658 18.44 242.205 18.36L240.565 18.08C240.311 18.0267 240.118 17.9467 239.985 17.84C239.851 17.72 239.785 17.58 239.785 17.42C239.785 17.22 239.858 17.0733 240.005 16.98C240.151 16.8733 240.371 16.82 240.665 16.82H249.505C249.798 16.82 250.018 16.8733 250.165 16.98C250.311 17.0733 250.385 17.2133 250.385 17.4C250.385 17.5733 250.331 17.7133 250.225 17.82C250.131 17.9133 249.958 17.9933 249.705 18.06L248.685 18.3C248.285 18.4067 247.998 18.54 247.825 18.7C247.651 18.8467 247.565 19.08 247.565 19.4V28.64ZM262.008 28.36C262.008 28.5467 261.935 28.7 261.788 28.82C261.642 28.94 261.415 29 261.108 29H254.148C253.855 29 253.635 28.94 253.488 28.82C253.342 28.7 253.268 28.5467 253.268 28.36C253.268 28.0533 253.495 27.82 253.948 27.66L255.188 27.32C255.775 27.1333 256.175 26.92 256.388 26.68C256.615 26.4267 256.728 26.02 256.728 25.46V6.52C256.728 6.16 256.682 5.86 256.588 5.62C256.495 5.36667 256.262 5.02 255.888 4.58L254.108 2.34C253.962 2.12666 253.855 1.96666 253.788 1.86C253.722 1.74 253.688 1.62667 253.688 1.52C253.688 1.34667 253.748 1.22 253.868 1.14C254.002 1.04667 254.175 0.999998 254.388 0.999998H257.988C258.282 0.999998 258.528 1.06 258.728 1.18C258.942 1.28667 259.162 1.49333 259.388 1.8L276.028 23.9L275.288 25.44V4.54C275.288 3.99333 275.182 3.59333 274.968 3.34C274.768 3.08667 274.355 2.86667 273.728 2.68L272.348 2.34C271.895 2.16667 271.668 1.93333 271.668 1.64C271.668 1.44 271.742 1.28667 271.888 1.18C272.035 1.06 272.255 0.999998 272.548 0.999998H279.508C279.815 0.999998 280.042 1.06 280.188 1.18C280.335 1.28667 280.408 1.44 280.408 1.64C280.408 1.94667 280.182 2.18 279.728 2.34L278.488 2.68C277.902 2.85333 277.495 3.06667 277.268 3.32C277.055 3.57333 276.948 3.98 276.948 4.54V24.26C276.948 24.6067 276.982 24.9 277.048 25.14C277.115 25.3667 277.228 25.5933 277.388 25.82L278.648 27.46C278.835 27.7133 278.955 27.9067 279.008 28.04C279.062 28.1733 279.088 28.3 279.088 28.42C279.088 28.5933 279.022 28.7333 278.888 28.84C278.768 28.9467 278.582 29 278.328 29H274.248C273.768 29 273.528 28.8067 273.528 28.42C273.528 28.2333 273.495 28.06 273.428 27.9C273.362 27.74 273.168 27.4533 272.848 27.04L257.048 6L258.388 5.06V25.48C258.388 26.0133 258.495 26.4067 258.708 26.66C258.922 26.9 259.328 27.12 259.928 27.32L261.328 27.66C261.782 27.82 262.008 28.0533 262.008 28.36Z" fill="#E2DA1E"/>
</svg>
